<?xml version="1.0" encoding="UTF-8"?>
<svg version="1.1" xmlns="http://www.w3.org/2000/svg" width="1024" height="1024">
<path d="M0 0 C5.40708657 3.93242659 7.74670785 9.96652341 10.59423828 15.82348633 C14.02159961 22.85274303 17.45144326 29.16220961 22.75 35 C23.35328125 35.68320313 23.9565625 36.36640625 24.578125 37.0703125 C37.83484738 51.24314984 57.5165368 58.29706249 76.63671875 59.125 C86.474976 59.31488193 96.60254281 58.87242355 105.75 55 C106.38534668 54.84684326 107.02069336 54.69368652 107.67529297 54.53588867 C123.75048622 50.38372943 138.17931173 38.07691847 146.875 24.3125 C149.22971204 20.25221276 151.00182797 16.03243825 152.75 11.6875 C155.37429661 5.33393978 157.5609002 2.0945499 163.75 -1 C172.8250657 -1.73364319 181.51470257 0.6005176 190.3125 2.5625 C191.1333609 2.74329102 191.9542218 2.92408203 192.79995728 3.11035156 C230.85134232 11.51157731 265.5020787 23.93890834 292.75 53 C295.65702791 55.96111215 298.59619349 58.80400411 301.75 61.5 C304.90440628 64.1965086 307.82105902 67.06037639 310.75 70 C312.2935335 71.52533313 313.83857891 73.04913758 315.38500977 74.5715332 C319.78308845 78.90564202 324.17233002 83.24850972 328.55522251 87.59797382 C331.19718344 90.21904798 333.84277001 92.8362379 336.49682617 95.44506836 C339.07911737 97.98366381 341.65130013 100.53211881 344.21699333 103.08748436 C345.18981078 104.05296745 346.16611526 105.01495131 347.14608955 105.97316933 C359.66624735 118.22609911 359.66624735 118.22609911 359.8125 126.5625 C357.72140721 133.32780021 353.59638176 137.30807326 348.27734375 141.76953125 C344.84396896 144.7996039 341.61348225 148.0139965 338.375 151.25 C337.75568604 151.86496338 337.13637207 152.47992676 336.49829102 153.11352539 C335.91362061 153.69996826 335.3289502 154.28641113 334.7265625 154.890625 C334.20143066 155.41688477 333.67629883 155.94314453 333.13525391 156.48535156 C331.53420638 158.15879531 331.53420638 158.15879531 329.75 161 C329.09 161 328.43 161 327.75 161 C327.5025 161.61875 327.255 162.2375 327 162.875 C325.54371361 165.35068687 324.37187494 165.95125002 321.75 167 C321.75 167.66 321.75 168.32 321.75 169 C321.09 169 320.43 169 319.75 169 C319.523125 169.55171875 319.29625 170.1034375 319.0625 170.671875 C317.36274074 173.68692417 315.20195184 175.81230369 312.75 178.25 C311.863125 179.14203125 310.97625 180.0340625 310.0625 180.953125 C307.75 183 307.75 183 305.75 183 C305.5025 183.5775 305.255 184.155 305 184.75 C303.56700012 187.32939979 301.96575324 189.06121592 299.75 191 C299.09 191 298.43 191 297.75 191 C297.50757568 191.5676709 297.26515137 192.1353418 297.01538086 192.72021484 C295.50685542 195.43806368 293.70778646 197.28449748 291.50390625 199.4765625 C290.66666016 200.311875 289.82941406 201.1471875 288.96679688 202.0078125 C287.65291992 203.30332031 287.65291992 203.30332031 286.3125 204.625 C285.44044922 205.49640625 284.56839844 206.3678125 283.66992188 207.265625 C277.17178302 213.71881132 277.17178302 213.71881132 273.75 216 C271.79796433 225.45964653 272.61797553 235.74067952 272.65234375 245.38085938 C272.65426792 246.98415073 272.65572936 248.58744269 272.6567688 250.19073486 C272.65990731 253.61888268 272.66614196 257.04700525 272.67483521 260.47514343 C272.68848871 265.91754966 272.69427984 271.35994786 272.69897461 276.80236816 C272.71096461 289.34645778 272.73296175 301.89052593 272.75520325 314.43460083 C272.77548219 325.92086013 272.79353697 337.40711184 272.80341816 348.89338541 C272.80754302 353.40710046 272.81377396 357.920791 272.82516479 362.43449402 C272.90524888 394.74744806 272.90524888 394.74744806 272.49609375 407.49414062 C272.48224136 408.3008596 272.46838898 409.10757858 272.45411682 409.93874359 C272.23071691 415.04147823 270.94386236 418.0401574 267.75 422 C263.74649389 425.51823264 260.43889194 426.12491241 255.2026186 426.13422108 C254.04160832 426.13867892 252.88059804 426.14313676 251.68440562 426.14772969 C249.76217017 426.14745315 249.76217017 426.14745315 247.80110168 426.14717102 C246.43065448 426.15046984 245.06020824 426.15419545 243.68976325 426.1583125 C239.91526065 426.1683386 236.14077396 426.17205027 232.36625993 426.17470181 C228.29863011 426.17860305 224.23101289 426.18818152 220.16339111 426.19691467 C210.33582227 426.21668416 200.50825238 426.2267459 190.68066862 426.23564246 C186.05386779 426.24002457 181.4270681 426.24539158 176.80026817 426.25063133 C161.42174041 426.26764409 146.04321335 426.28213858 130.66467762 426.28938007 C126.67318025 426.29129 122.68168289 426.29321033 118.69018555 426.29516602 C117.69810582 426.29564976 116.70602608 426.2961335 115.68388333 426.2966319 C99.61042492 426.30493339 83.5370409 426.33027211 67.46361498 426.36274669 C50.96529882 426.39580825 34.46702049 426.41382802 17.96867102 426.41702431 C8.70386276 426.41919025 -0.56083702 426.42795107 -9.82561302 426.45348549 C-17.71546783 426.47518015 -25.6051878 426.483249 -33.49506905 426.47351871 C-37.52039107 426.46897041 -41.54543482 426.47089081 -45.57071877 426.49028015 C-49.25783587 426.50788713 -52.94447121 426.50693453 -56.63159326 426.49138286 C-58.59298007 426.487878 -60.55437178 426.50405153 -62.5156886 426.52098733 C-75.18274788 426.42840629 -75.18274788 426.42840629 -80.25 422 C-84.29932383 416.81556873 -84.82464683 411.44438993 -84.73101807 405.06555176 C-84.73443577 404.20117036 -84.73785347 403.33678897 -84.74137473 402.4462142 C-84.74792928 399.5686161 -84.72601794 396.69196434 -84.70410156 393.81445312 C-84.70297256 391.74433413 -84.70360798 389.67421353 -84.70587158 387.60409546 C-84.70701759 381.99716897 -84.68352634 376.39058589 -84.65557575 370.78373909 C-84.63054337 364.91944248 -84.62821864 359.05513769 -84.62347412 353.1907959 C-84.61104978 342.09162238 -84.57823536 330.99260676 -84.53807616 319.89350271 C-84.49334172 307.2551277 -84.47136718 294.61674508 -84.45129442 281.97831059 C-84.40950237 255.98545291 -84.33916071 229.99273531 -84.25 204 C-84.91 204 -85.57 204 -86.25 204 C-86.25 204.66 -86.25 205.32 -86.25 206 C-88.1225197 207.88645905 -90.13925156 209.54336063 -92.1796875 211.24609375 C-94.36602106 213.03389662 -94.36602106 213.03389662 -96.5625 215.4375 C-100.99834664 218.0164806 -105.27720846 218.01843894 -110.25 217 C-113.46897288 215.16142608 -115.74682812 212.70819358 -118.25 210 C-120.03770135 208.20437678 -121.82948444 206.41280949 -123.625 204.625 C-124.45773437 203.77164063 -125.29046875 202.91828125 -126.1484375 202.0390625 C-128.08096046 199.95873909 -128.08096046 199.95873909 -130.25 199 C-130.25 198.34 -130.25 197.68 -130.25 197 C-131.11625 196.62875 -131.11625 196.62875 -132 196.25 C-134.57939979 194.81700012 -136.31121592 193.21575324 -138.25 191 C-138.25 190.34 -138.25 189.68 -138.25 189 C-138.78109375 188.79375 -139.3121875 188.5875 -139.859375 188.375 C-143.25773436 186.42038808 -145.76055928 183.77876283 -148.5 181 C-149.05429687 180.4534375 -149.60859375 179.906875 -150.1796875 179.34375 C-154.25 175.2533867 -154.25 175.2533867 -154.25 173 C-154.84762146 172.72704102 -155.44524292 172.45408203 -156.06097412 172.17285156 C-158.1884059 171.03300132 -159.57540472 169.92785057 -161.27441406 168.234375 C-161.83469299 167.68040039 -162.39497192 167.12642578 -162.972229 166.55566406 C-163.56404968 165.95979492 -164.15587036 165.36392578 -164.765625 164.75 C-165.38145447 164.13608398 -165.99728394 163.52216797 -166.6317749 162.88964844 C-167.92852646 161.59425517 -169.22276657 160.29634356 -170.51464844 158.99609375 C-172.49975202 157.00024932 -174.49533591 155.01533274 -176.4921875 153.03125 C-177.75064211 151.77147445 -179.00847654 150.51107899 -180.265625 149.25 C-180.8655426 148.65413086 -181.46546021 148.05826172 -182.08355713 147.44433594 C-186.25 143.22993247 -186.25 143.22993247 -186.25 141 C-187.24 140.67 -188.23 140.34 -189.25 140 C-192.96896285 136.28915716 -196.4643215 132.16314445 -197.375 126.875 C-197.06288813 117.19953188 -191.14364364 112.42455242 -184.5 106.0625 C-179.05220611 100.77798063 -173.67014225 95.54949804 -168.79321289 89.72583008 C-166.54413045 87.21060088 -163.9984865 85.10085625 -161.4296875 82.921875 C-157.16533771 79.16191067 -153.23886717 75.04743129 -149.25 71 C-148.08041748 69.83259277 -148.08041748 69.83259277 -146.88720703 68.64160156 C-144.46136809 66.21172031 -142.05786249 63.76227954 -139.66015625 61.3046875 C-106.40212408 27.43267048 -72.50512572 12.31654733 -26.25 2 C-24.99477539 1.71898437 -23.73955078 1.43796875 -22.44628906 1.1484375 C-21.2084668 0.87644531 -19.97064453 0.60445312 -18.6953125 0.32421875 C-17.57914551 0.07889404 -16.46297852 -0.16643066 -15.31298828 -0.41918945 C-9.83935885 -1.45711106 -5.3332266 -1.6409928 0 0 Z M-26.1640625 27.72265625 C-26.92710693 27.90319046 -27.69015137 28.08372467 -28.47631836 28.26972961 C-30.94480139 28.85839366 -33.41026121 29.45835815 -35.875 30.0625 C-36.71424011 30.26796448 -37.55348022 30.47342896 -38.41815186 30.68511963 C-54.56728092 34.66428298 -69.55021409 39.06994843 -84.125 47.25 C-84.85025879 47.65524902 -85.57551758 48.06049805 -86.32275391 48.47802734 C-99.35806948 56.21472038 -110.04985306 67.51489003 -120.64453125 78.19921875 C-121.97072366 79.52915317 -123.29736711 80.85863796 -124.62443542 82.18769836 C-128.07289365 85.64369962 -131.5152969 89.10566824 -134.95635986 92.56903076 C-138.48606167 96.11939504 -142.02161477 99.66392252 -145.55664062 103.20898438 C-152.46007975 110.1337082 -159.35711937 117.06476725 -166.25 124 C-164.9737475 126.79425088 -163.65029023 128.85142126 -161.484375 131.02441406 C-160.93040039 131.58469299 -160.37642578 132.14497192 -159.80566406 132.722229 C-159.20979492 133.31404968 -158.61392578 133.90587036 -158 134.515625 C-157.38608398 135.13145447 -156.77216797 135.74728394 -156.13964844 136.3817749 C-154.84425517 137.67852646 -153.54634356 138.97276657 -152.24609375 140.26464844 C-150.25024932 142.24975202 -148.26533274 144.24533591 -146.28125 146.2421875 C-145.02147445 147.50064211 -143.76107899 148.75847654 -142.5 150.015625 C-141.90413086 150.6155426 -141.30826172 151.21546021 -140.69433594 151.83355713 C-137.97714901 154.95252572 -137.97714901 154.95252572 -134.25 156 C-134.25 156.66 -134.25 157.32 -134.25 158 C-132.59997172 159.35386936 -130.9325613 160.68678142 -129.25 162 C-128.92 162.66 -128.59 163.32 -128.25 164 C-127.59 164 -126.93 164 -126.25 164 C-125.92 164.99 -125.59 165.98 -125.25 167 C-123.82731289 168.44218652 -123.82731289 168.44218652 -122 169.875 C-115.70909851 175.19012298 -110.02874426 181.14197419 -104.25 187 C-100.92697814 185.43622501 -98.68815993 183.78646849 -96.25 181 C-96.25 180.34 -96.25 179.68 -96.25 179 C-95.70859375 178.79246094 -95.1671875 178.58492187 -94.609375 178.37109375 C-91.34888509 176.47633885 -89.05036637 173.79017756 -86.5 171.0625 C-82.06377965 166.50372469 -78.7322742 163.08037903 -72.25 162 C-67.9769457 162.23564638 -65.31259422 162.99308625 -62.17173767 165.96936035 C-59.49399792 170.19223862 -59.64841881 173.61220202 -59.64282227 178.52148438 C-59.62640875 179.50591522 -59.60999523 180.49034607 -59.59308434 181.50460815 C-59.54328506 184.8677207 -59.52333622 188.23033316 -59.50390625 191.59375 C-59.47598545 194.05148556 -59.44693897 196.50920854 -59.41688538 198.96691895 C-59.32255481 207.64449435 -59.28159325 216.3219964 -59.25 225 C-59.2453336 226.2322506 -59.2453336 226.2322506 -59.24057293 227.48939514 C-59.14134117 254.13318644 -59.14770129 280.77683414 -59.17796957 307.42074776 C-59.19157292 319.59139561 -59.19670251 331.76204751 -59.20248318 343.93270111 C-59.21172725 362.95514374 -59.23169354 381.97755892 -59.25 401 C-6.45 401 46.35 401 100.75 401 C101.08 393.41 101.41 385.82 101.75 378 C105.75 372 105.75 372 108.5 370.5625 C114.77032955 369.47725065 119.3686311 370.78672885 125.125 373.125 C131.3256495 375.47815507 136.47568818 375.5774246 142.71875 373.2734375 C148.39933939 370.40822794 152.49570675 365.73663982 155.125 360 C156.47315075 353.5288764 156.1525437 347.72705375 152.75 342 C148.4960427 337.3938042 144.03226793 333.35551013 137.6484375 332.6640625 C130.5925193 332.58583724 125.34047144 333.15412111 118.92578125 336.09375 C115.67972141 337.44578929 113.20378747 337.53135192 109.75 337 C105.75145324 334.8875602 103.34258266 333.24113522 101.75 329 C101.48930359 326.04701233 101.48930359 326.04701233 101.4753418 322.56665039 C101.46580978 321.26172134 101.45627777 319.9567923 101.44645691 318.61231995 C101.44671835 317.19076511 101.44765544 315.76921025 101.44921875 314.34765625 C101.44533015 312.8856138 101.44099514 311.42357247 101.43623352 309.96153259 C101.42877782 306.89920385 101.42905783 303.83699042 101.43432617 300.7746582 C101.44012006 296.85605599 101.42318906 292.93792656 101.3999815 289.0194025 C101.38522853 286.00045526 101.38437456 282.98162148 101.38749123 279.96264458 C101.3869788 278.51819357 101.38175577 277.07373609 101.37167931 275.62932014 C101.35930334 273.60716502 101.36805643 271.58491421 101.37768555 269.56274414 C101.37705612 268.41342911 101.3764267 267.26411407 101.3757782 266.07997131 C101.7948182 262.63113115 102.69779865 260.77662999 104.75 258 C110.28670385 253.89303012 116.69815625 254.54184929 123.296875 254.5234375 C125.10819916 254.50006821 125.10819916 254.50006821 126.95611572 254.47622681 C130.80407088 254.42877996 134.65184497 254.40095882 138.5 254.375 C142.36231043 254.33853142 146.22451772 254.29796015 150.08673096 254.25234985 C152.48832159 254.22508417 154.88998806 254.20374999 157.29168701 254.18881226 C158.37331116 254.17855011 159.4549353 254.16828796 160.56933594 254.15771484 C161.52386658 254.15121918 162.47839722 254.14472351 163.46185303 254.13803101 C165.78028487 254.14841767 165.78028487 254.14841767 167.75 253 C168.13846889 250.71380921 168.13846889 250.71380921 167.75 248 C165.76516693 245.41397532 165.76516693 245.41397532 163.125 242.9375 C152.60270378 231.8935602 149.10009441 219.51935448 149.44140625 204.58203125 C150.09627117 191.44397355 156.04350615 180.21960644 165.4375 171.1875 C170.7019358 166.6889469 176.46362062 163.81135735 182.75 161 C183.36182129 160.65235596 183.97364258 160.30471191 184.60400391 159.9465332 C192.96325159 156.25952487 208.07832019 157.95631959 216.5625 160.625 C219.2578125 161.74609375 219.2578125 161.74609375 221.75 163 C222.61367188 163.42410156 223.47734375 163.84820312 224.3671875 164.28515625 C238.0171335 171.73246721 244.59543045 182.7301255 249.125 197.25 C249.67750943 199.16356924 250.22331848 201.07916152 250.75 203 C251.42697433 202.32302567 252.10394867 201.64605133 252.80143738 200.94856262 C277.78429159 175.96570841 302.76714579 150.98285421 327.75 126 C326.19630509 122.73458403 324.53910035 120.53629142 321.97460938 117.96582031 C321.20040649 117.18531311 320.42620361 116.40480591 319.62854004 115.60064697 C318.79205933 114.76821472 317.95557861 113.93578247 317.09375 113.078125 C316.23567749 112.21813904 315.37760498 111.35815308 314.49353027 110.47210693 C312.68027533 108.65749174 310.86449519 106.84539684 309.04638672 105.03564453 C306.25385862 102.25384379 303.47217542 99.46151855 300.69140625 96.66796875 C298.93032867 94.90821228 297.16863106 93.14907605 295.40625 91.390625 C294.56976929 90.55009583 293.73328857 89.70956665 292.87145996 88.84356689 C292.09725708 88.07566833 291.3230542 87.30776978 290.52539062 86.51660156 C289.50185486 85.49545258 289.50185486 85.49545258 288.4576416 84.45367432 C286.86994508 82.78392923 286.86994508 82.78392923 284.75 83 C284.39615234 82.13955078 284.39615234 82.13955078 284.03515625 81.26171875 C282.46167911 78.49259028 280.60196589 76.88690027 278.1875 74.8125 C274.81608932 71.86851888 271.63463864 68.87819624 268.5625 65.625 C249.47322206 46.36768264 225.36563331 37.32782459 199.6875 30.625 C199.02114532 30.44960693 198.35479065 30.27421387 197.66824341 30.09350586 C190.0485084 28.10312498 182.62778862 26.43270568 174.75 26 C174.20472656 27.02738281 173.65945313 28.05476563 173.09765625 29.11328125 C168.39127676 37.82403604 163.44009598 45.63119863 156.75 53 C156.1621875 53.680625 155.574375 54.36125 154.96875 55.0625 C137.62979432 73.9224167 111.61365932 83.64414127 86.48681641 84.94091797 C71.36662744 85.26733061 56.8414113 83.5014414 42.75 78 C41.72390625 77.64164063 40.6978125 77.28328125 39.640625 76.9140625 C15.61950899 67.95380494 -2.11692295 48.47850163 -13.25 26 C-17.74282782 25.75878536 -21.8288335 26.67600414 -26.1640625 27.72265625 Z M181.875 189.25 C175.95495741 196.91123159 172.65573975 203.13624563 173.75 213 C175.95058856 221.24906339 180.22606801 226.72777744 186.375 232.4375 C191.8874166 238.38510738 194.10924047 245.41625104 194.04296875 253.421875 C193.33775092 259.62779191 190.59906788 265.49436882 187.75 271 C187.09 271 186.43 271 185.75 271 C185.75 271.66 185.75 272.32 185.75 273 C182.71558394 274.58471846 179.64552393 275.86913325 176.4375 277.0625 C175.53386719 277.40410156 174.63023437 277.74570312 173.69921875 278.09765625 C167.36826817 280.03467557 161.08869886 280.13905997 154.53515625 280.09765625 C153.67941513 280.0962413 152.82367401 280.09482635 151.94200134 280.09336853 C149.23213069 280.0878099 146.52234532 280.07526525 143.8125 280.0625 C141.96549599 280.05747965 140.11849068 280.05291768 138.27148438 280.04882812 C133.76426432 280.03870864 129.25722665 280.01912543 124.75 280 C124.75 289.57 124.75 299.14 124.75 309 C127.204375 308.95875 129.65875 308.9175 132.1875 308.875 C145.73943969 308.83691365 157.80118774 312.37367548 167.9375 321.9609375 C177.04623518 332.20826458 180.42185033 342.62601966 180.09375 356.1875 C178.85307464 369.94771768 172.59358836 380.42297143 162.1484375 389.24609375 C153.51976931 395.55598303 144.36578911 398.16123775 133.875 399.125 C132.99585938 399.21136719 132.11671875 399.29773438 131.2109375 399.38671875 C129.05788892 399.59734307 126.90401751 399.79952708 124.75 400 C124.75 400.33 124.75 400.66 124.75 401 C165.01 401 205.27 401 246.75 401 C246.75 344.57 246.75 288.14 246.75 230 C241.47 230 236.19 230 230.75 230 C224.75 227 224.75 227 223.25 224.25 C222.74388318 220.96024067 223.17566928 219.26775541 224.21875 216.1796875 C225.92287978 209.18774324 225.92366298 201.04682724 222.1328125 194.77734375 C215.96309194 186.84733568 209.13015092 183.81201921 199.3125 182.5625 C192.90499053 183.34938713 186.98695498 185.24933958 181.875 189.25 Z " fill="#E48177" transform="translate(431.25,210)"/>
<path d="M0 0 C0.99 0.495 0.99 0.495 2 1 C2.98226562 0.95359375 3.96453125 0.9071875 4.9765625 0.859375 C14.48174687 0.57442301 14.48174687 0.57442301 18.17578125 4.04296875 C19.8593987 6.80917834 21.33520265 9.62229924 22.74755859 12.53515625 C25.20080025 17.36321235 28.00118577 22.00333772 30.72903442 26.67996216 C32.9402939 30.48652752 35.11369393 34.31514732 37.29589844 38.13842773 C40.30816924 43.90015309 40.30816924 43.90015309 45 48 C45.20496094 47.22527344 45.40992188 46.45054687 45.62109375 45.65234375 C47.53016493 40.59573878 50.2733708 36.17911258 53.0625 31.5625 C53.64233643 30.59272217 54.22217285 29.62294434 54.81958008 28.6237793 C55.99012786 26.6675812 57.16319484 24.71288816 58.33886719 22.75976562 C59.8279286 20.28587524 61.31034391 17.80820622 62.7890625 15.328125 C68.56852716 5.64720926 68.56852716 5.64720926 71 2 C73.64453125 1.453125 73.64453125 1.453125 76.8125 1.25 C78.36904297 1.13398437 78.36904297 1.13398437 79.95703125 1.015625 C82.82179276 1.00091506 85.21463598 1.3958813 88 2 C88.04626791 13.56960037 88.08184092 25.13917885 88.10362434 36.70885277 C88.1140774 42.08067458 88.12826429 47.45243327 88.15087891 52.82421875 C88.17255311 58.00483448 88.18455715 63.18538935 88.18975449 68.36604691 C88.19346002 70.34607527 88.20069562 72.32610018 88.21146011 74.30610275 C88.22590302 77.07181846 88.22798098 79.83728021 88.22705078 82.60302734 C88.23424133 83.42805252 88.24143188 84.2530777 88.24884033 85.10310364 C88.22810432 90.77189568 88.22810432 90.77189568 86 93 C82.7421875 92.9765625 82.7421875 92.9765625 78.875 92.625 C77.59367187 92.51414062 76.31234375 92.40328125 74.9921875 92.2890625 C74.00476563 92.19367188 73.01734375 92.09828125 72 92 C71.08376605 85.02203832 70.86768189 78.21657061 70.90234375 71.18359375 C70.9037587 70.08652603 70.90517365 68.98945831 70.90663147 67.85914612 C70.91218988 64.38523531 70.92473454 60.91139104 70.9375 57.4375 C70.94252038 55.06966239 70.94708234 52.70182377 70.95117188 50.33398438 C70.96214565 44.55596722 70.97884189 38.77798836 71 33 C68.8489662 36.62515533 66.6985264 40.2506622 64.54858398 43.87646484 C63.82054818 45.10409542 63.09236354 46.33163775 62.36401367 47.55908203 C61.65651609 48.75142785 60.94969819 49.94417724 60.24356079 51.1373291 C59.53600336 52.32856303 58.82421191 53.51729208 58.10824585 54.70349121 C56.35660781 57.6208315 54.74380247 60.51564075 53.22705078 63.56835938 C49.23574367 71.40583515 49.23574367 71.40583515 45.77294922 73.07080078 C43.0067031 73.38432022 41.52101747 73.19036822 39 72 C36.33746184 69.21081875 34.75191653 66.06814467 33.0625 62.625 C32.13851512 60.86624258 31.21281243 59.10838626 30.28515625 57.3515625 C29.89207275 56.56604004 29.49898926 55.78051758 29.09399414 54.97119141 C28.03692965 52.8535058 28.03692965 52.8535058 26 51 C24.98536805 49.27032102 24.01105732 47.51677853 23.0625 45.75 C22.55847656 44.81671875 22.05445313 43.8834375 21.53515625 42.921875 C19.98274028 39.96714943 18.48869671 36.98723005 17 34 C16.98969254 34.71187973 16.97938507 35.42375946 16.96876526 36.1572113 C16.87095102 42.85282826 16.76845996 49.54835518 16.66066074 56.24381924 C16.6054012 59.6863574 16.55197653 63.128904 16.50268555 66.5715332 C16.44599199 70.52564526 16.38142505 74.47960944 16.31640625 78.43359375 C16.29133751 80.29605995 16.29133751 80.29605995 16.26576233 82.19615173 C16.24581711 83.33725906 16.22587189 84.47836639 16.20532227 85.65405273 C16.18977798 86.664431 16.1742337 87.67480927 16.15821838 88.71580505 C16 91 16 91 15 92 C10.05 92 5.1 92 0 92 C0 61.64 0 31.28 0 0 Z " fill="#E48177" transform="translate(142,688)"/>
<path d="M0 0 C1.35496933 0.9704823 2.69536881 1.96283307 4 3 C4.33 1.35 4.66 -0.3 5 -2 C10.61 -2 16.22 -2 22 -2 C22.0681756 5.74614688 22.12304422 13.49212539 22.15543652 21.23849106 C22.17099475 24.83668039 22.19204913 28.43465121 22.22631836 32.03271484 C22.25926816 35.5146215 22.2769267 38.99631996 22.28463173 42.47837067 C22.29275243 44.43232601 22.31611272 46.38619931 22.33988953 48.34002686 C22.34219168 60.73872628 20.62158529 71.64466277 12 81 C4.07337489 87.73122743 -4.14695498 90.52449944 -14.4375 90.375 C-15.23220703 90.38660156 -16.02691406 90.39820313 -16.84570312 90.41015625 C-24.31212079 90.37370507 -31.42467757 88.79514042 -37.375 84.0625 C-38.00148438 83.57910156 -38.62796875 83.09570312 -39.2734375 82.59765625 C-41.14452303 80.86626715 -42.59823884 79.12844103 -44 77 C-44 75 -44 75 -43 73 C-40.625 70.9375 -40.625 70.9375 -38 69 C-37.195625 68.13375 -37.195625 68.13375 -36.375 67.25 C-35 66 -35 66 -32 66 C-31.1646875 67.1446875 -31.1646875 67.1446875 -30.3125 68.3125 C-26.68171112 72.53206546 -22.64350413 73.72273592 -17.28125 74.28515625 C-10.23479654 74.50777772 -5.33371231 73.61290965 0.3125 69.1875 C3.71886229 64.77184518 4.26007753 60.46162814 4 55 C3.50371094 55.40992188 3.00742187 55.81984375 2.49609375 56.2421875 C-4.53389452 61.81815542 -11.04416658 63.92192403 -20 63 C-30.28032036 61.10037559 -38.04468206 55.54215916 -44 47 C-48.42083689 38.93542646 -49.21689186 29.50727766 -47.5390625 20.53515625 C-44.81180715 11.40687216 -39.38530429 3.66348474 -31 -1 C-20.51705489 -5.60482115 -10.10365088 -5.38501179 0 0 Z M-28.9375 18.125 C-31.08776182 21.91957969 -31.16320014 25.15586421 -31.1875 29.4375 C-31.20167969 30.57058594 -31.21585937 31.70367188 -31.23046875 32.87109375 C-31.01071135 35.85457979 -30.55843386 37.49295423 -29 40 C-28.34 40 -27.68 40 -27 40 C-26.938125 40.598125 -26.87625 41.19625 -26.8125 41.8125 C-25.65422805 44.93092447 -23.93168385 45.56824742 -21 47 C-15.22644536 49.11697004 -9.41319379 48.26617652 -3.859375 45.984375 C0.37790061 43.74111144 3.24767416 40.40387153 5 36 C5.62214228 30.40071944 6.28803366 24.10908596 3.125 19.1875 C2.42375 18.465625 1.7225 17.74375 1 17 C0.34 17 -0.32 17 -1 17 C-1.33 16.01 -1.66 15.02 -2 14 C-11.71769111 8.4174966 -21.39059267 9.8477468 -28.9375 18.125 Z " fill="#E37E74" transform="translate(539,717)"/>
<path d="M0 0 C4.60457879 0.06980725 9.20832799 0.15819513 13.81225586 0.26245117 C15.37238205 0.29532463 16.93261647 0.32346804 18.49291992 0.34643555 C45.40717021 0.75304749 45.40717021 0.75304749 54.80078125 9.71875 C60.7652483 15.9425417 63.07585296 21.920463 63.375 30.5 C63.07429284 39.49615586 59.90713316 47.18309145 54 54 C45.82886227 60.96556003 37.49974235 62.28135357 27.0625 62.625 C23.741875 62.74875 20.42125 62.8725 17 63 C16.67 72.57 16.34 82.14 16 92 C13.380625 92.020625 10.76125 92.04125 8.0625 92.0625 C7.2362915 92.071604 6.41008301 92.08070801 5.55883789 92.09008789 C3.70566241 92.09723945 1.85250692 92.0502852 0 92 C-1.81799608 90.18200392 -1.12639799 87.66963525 -1.13552856 85.2497406 C-1.13350433 84.42426224 -1.1314801 83.59878387 -1.12939453 82.74829102 C-1.13114685 81.88328979 -1.13289917 81.01828857 -1.13470459 80.1270752 C-1.13912473 77.25266545 -1.13618429 74.37831668 -1.1328125 71.50390625 C-1.13348555 69.51472461 -1.13445559 67.52554305 -1.13571167 65.53636169 C-1.13718891 61.36074035 -1.13503347 57.18514035 -1.13037109 53.00952148 C-1.12467749 47.64797291 -1.12795032 42.28647444 -1.13394356 36.92492771 C-1.13755161 32.8149528 -1.13640939 28.70498983 -1.13381577 24.59501457 C-1.13314698 22.61778698 -1.13397323 20.64055832 -1.13629532 18.66333199 C-1.13882542 15.90255984 -1.13497598 13.14186954 -1.12939453 10.38110352 C-1.13141876 9.55764938 -1.13344299 8.73419525 -1.13552856 7.88578796 C-1.11426323 2.22852647 -1.11426323 2.22852647 0 0 Z M16 17 C16 26.9 16 36.8 16 47 C19.9909375 47.0928125 19.9909375 47.0928125 24.0625 47.1875 C24.8862915 47.21481201 25.71008301 47.24212402 26.55883789 47.27026367 C32.77018304 47.33943564 37.1593832 45.9961091 42.3125 42.375 C45.30737691 38.15998806 46.41292032 33.69258462 45.625 28.5546875 C44.20158567 23.65361316 42.54155646 20.65847207 38 18 C35.16438661 17.11817552 32.6332352 16.88119118 29.671875 16.90234375 C28.5905127 16.90609009 28.5905127 16.90609009 27.48730469 16.90991211 C26.13233887 16.92356812 26.13233887 16.92356812 24.75 16.9375 C20.41875 16.9684375 20.41875 16.9684375 16 17 Z " fill="#E48076" transform="translate(575,688)"/>
<path d="M0 0 C0.71027344 0.36351562 1.42054688 0.72703125 2.15234375 1.1015625 C8.58498704 5.01463654 12.51606765 12.22526021 14.375 19.375 C15.34431298 24.83840045 15.38573428 30.47413212 15 36 C14 37 14 37 12.09544373 37.12025452 C11.26271439 37.11803391 10.42998505 37.11581329 9.57202148 37.11352539 C8.63112167 37.11344986 7.69022186 37.11337433 6.72080994 37.11329651 C5.69790359 37.10813522 4.67499725 37.10297394 3.62109375 37.09765625 C2.57929459 37.0962413 1.53749542 37.09482635 0.46412659 37.09336853 C-2.87811094 37.0877508 -6.22028257 37.0751953 -9.5625 37.0625 C-11.82226466 37.05748728 -14.08203037 37.05292398 -16.34179688 37.04882812 C-21.89455391 37.03777561 -27.44727225 37.02102024 -33 37 C-30.47716307 42.1895486 -28.65004104 44.67854212 -24 48 C-18.73479633 49.74769366 -11.9704458 50.20608526 -6.796875 48.10546875 C-5.15960077 47.13204731 -3.57449609 46.07199734 -2 45 C-1.34 45 -0.68 45 0 45 C0 44.34 0 43.68 0 43 C4.49797113 44.68673918 8.72886302 46.81673892 13 49 C9.9244887 55.15102261 4.21382688 60.10984796 -2 63 C-12.09574445 66.19413384 -23.04799087 65.62987747 -32.71875 61.296875 C-38.95079225 57.75400167 -43.6319966 52.59650436 -48 47 C-47.67 46.34 -47.34 45.68 -47 45 C-47.66 44.67 -48.32 44.34 -49 44 C-51.71917273 34.77235578 -51.20585816 22.22536598 -47.3828125 13.4296875 C-42.82033934 5.41313862 -36.80270218 -0.10938293 -28 -3 C-17.37166513 -5.77517633 -9.71888603 -5.10951171 0 0 Z M-30.8359375 17.1484375 C-32.27734266 19.22813361 -32.27734266 19.22813361 -33 23 C-22.44 23 -11.88 23 -1 23 C-2.89837438 17.30487685 -3.58954039 15.60855786 -8 12 C-16.84588183 8.1299267 -24.70431497 9.70523796 -30.8359375 17.1484375 Z " fill="#E47F75" transform="translate(723,717)"/>
<path d="M0 0 C2.98055867 2.56272334 5.43479995 5.2010216 7.671875 8.4375 C8.08695313 9.03691406 8.50203125 9.63632812 8.9296875 10.25390625 C13.55927405 18.52565005 11.671875 25.22596882 11.671875 35.4375 C-3.838125 35.7675 -19.348125 36.0975 -35.328125 36.4375 C-31.49579792 43.65958822 -31.49579792 43.65958822 -25.3984375 47.02734375 C-18.07448793 48.47831489 -13.13658842 48.25312213 -6.828125 44.0625 C-4.12109375 42.375 -4.12109375 42.375 -1.328125 41.4375 C2.88844238 42.6977443 6.17545005 44.79996474 9.671875 47.4375 C6.26027031 54.85403193 1.48477573 58.58896969 -6.125 61.51171875 C-17.56391955 64.85563571 -27.21689555 63.69198936 -37.671875 58.10546875 C-41.90671286 55.44623968 -45.40703569 52.87837201 -48.015625 48.5625 C-48.60923828 47.60730469 -48.60923828 47.60730469 -49.21484375 46.6328125 C-54.03216533 37.1333924 -54.3705237 26.39532878 -51.39453125 16.29296875 C-48.1088434 7.49502802 -43.81712335 1.66799093 -35.328125 -2.5625 C-23.59195928 -7.48161897 -10.75240815 -7.71967765 0 0 Z M-32.765625 13.8125 C-34.59810613 16.73601475 -34.59810613 16.73601475 -36.328125 21.4375 C-26.098125 21.4375 -15.868125 21.4375 -5.328125 21.4375 C-5.64461206 14.69820349 -5.64461206 14.69820349 -8.828125 11.5625 C-16.13280089 6.29755461 -26.46614344 7.6745436 -32.765625 13.8125 Z " fill="#E37F75" transform="translate(869.328125,718.5625)"/>
<path d="M0 0 C7.39995934 4.86008461 10.20274423 10.97220666 12.10546875 19.3828125 C12.46615928 23.00058805 12.4587449 26.57036403 12.3984375 30.203125 C12.39419266 31.18779755 12.38994781 32.17247009 12.38557434 33.1869812 C12.3689458 36.29421774 12.33132425 39.40077607 12.29296875 42.5078125 C12.27790143 44.63019889 12.26421663 46.75259556 12.25195312 48.875 C12.21909432 54.04452727 12.16742358 59.21355539 12.10546875 64.3828125 C7.15546875 64.3828125 2.20546875 64.3828125 -2.89453125 64.3828125 C-3.22453125 65.0428125 -3.55453125 65.7028125 -3.89453125 66.3828125 C-4.79002619 61.828556 -4.98658533 57.56677767 -4.921875 52.9296875 C-4.90922182 51.49088788 -4.89686138 50.05208566 -4.88476562 48.61328125 C-4.86007772 46.37768147 -4.83217264 44.14222266 -4.79858398 41.90673828 C-3.83425017 28.06187483 -3.83425017 28.06187483 -8.28100586 15.62402344 C-9.95155569 14.07795132 -9.95155569 14.07795132 -12.89453125 14.3828125 C-12.89453125 13.7228125 -12.89453125 13.0628125 -12.89453125 12.3828125 C-20.46412183 12.75353782 -20.46412183 12.75353782 -26.89453125 16.3828125 C-29.70438035 21.76896368 -30.35649655 26.13983143 -30.40625 32.16015625 C-30.4242012 32.97150528 -30.4421524 33.78285431 -30.46064758 34.61878967 C-30.51441588 37.18591258 -30.54853741 39.7528532 -30.58203125 42.3203125 C-30.61523401 44.07098873 -30.64972638 45.821641 -30.68554688 47.57226562 C-30.77012251 51.84231564 -30.83709199 56.11231475 -30.89453125 60.3828125 C-30.23453125 60.7128125 -29.57453125 61.0428125 -28.89453125 61.3828125 C-29.55453125 61.3828125 -30.21453125 61.3828125 -30.89453125 61.3828125 C-31.22453125 62.3728125 -31.55453125 63.3628125 -31.89453125 64.3828125 C-36.51453125 64.3828125 -41.13453125 64.3828125 -45.89453125 64.3828125 C-46.22453125 65.3728125 -46.55453125 66.3628125 -46.89453125 67.3828125 C-48.20880631 60.40214741 -48.0203448 53.43761997 -47.9921875 46.35546875 C-47.99031965 44.99783887 -47.98889748 43.64020831 -47.98789978 42.28257751 C-47.98410347 38.72999166 -47.97429821 35.17744746 -47.9631958 31.62487793 C-47.95291926 27.99146081 -47.94838885 24.35803688 -47.94335938 20.72460938 C-47.93267302 13.61066017 -47.91563174 6.49673907 -47.89453125 -0.6171875 C-44.22465904 -1.84047824 -41.55485303 -1.49739756 -37.70703125 -1.1796875 C-35.79857422 -1.02693359 -35.79857422 -1.02693359 -33.8515625 -0.87109375 C-32.87574219 -0.78730469 -31.89992188 -0.70351563 -30.89453125 -0.6171875 C-30.56453125 1.0328125 -30.23453125 2.6828125 -29.89453125 4.3828125 C-29.23453125 3.7846875 -28.57453125 3.1865625 -27.89453125 2.5703125 C-19.43084992 -3.60112181 -9.47754692 -4.79748393 0 0 Z M-31.89453125 5.3828125 C-30.89453125 7.3828125 -30.89453125 7.3828125 -30.89453125 7.3828125 Z " fill="#E58177" transform="translate(468.89453125,715.6171875)"/>
<path d="M0 0 C3.55454517 3.97770531 6.625 9.43556711 6.625 14.9375 C5.86574219 15.07027344 5.10648437 15.20304688 4.32421875 15.33984375 C3.33035156 15.51644531 2.33648437 15.69304688 1.3125 15.875 C-0.16669922 16.13603516 -0.16669922 16.13603516 -1.67578125 16.40234375 C-4.45689213 16.89496847 -4.45689213 16.89496847 -7.375 17.9375 C-8.31901042 16.14713542 -9.26302083 14.35677083 -10.20703125 12.56640625 C-11.36519799 10.61482013 -11.36519799 10.61482013 -14.375 9.9375 C-16.33177555 9.77995296 -16.33177555 9.77995296 -18.375 9.8125 C-19.055625 9.80992187 -19.73625 9.80734375 -20.4375 9.8046875 C-22.59374781 9.87118874 -22.59374781 9.87118874 -25.375 10.9375 C-26.4703531 12.73399965 -26.4703531 12.73399965 -26.375 14.9375 C-23.08543835 19.35266762 -19.08402883 20.20278646 -14 21.5 C-5.44882011 23.74913846 2.10699519 26.07415865 6.9375 34.125 C8.56223039 40.77162431 8.45734079 47.08722829 5.02734375 53.1171875 C1.38410535 57.84629361 -3.70953014 61.16248155 -9.375 62.9375 C-12.00826356 63.1532035 -14.49573511 63.27162478 -17.125 63.25 C-17.8358374 63.24436035 -18.5466748 63.2387207 -19.27905273 63.23291016 C-27.49824289 63.04340252 -33.76651093 61.40448523 -39.8671875 55.7578125 C-42.75594366 52.2703504 -45.375 47.55466075 -45.375 42.9375 C-43.27436424 42.23928583 -41.16934263 41.55425528 -39.0625 40.875 C-37.89074219 40.49214844 -36.71898437 40.10929688 -35.51171875 39.71484375 C-32.375 38.9375 -32.375 38.9375 -29.375 39.9375 C-28.900625 40.906875 -28.42625 41.87625 -27.9375 42.875 C-26.22952448 46.22263201 -25.75243761 46.68285328 -22.375 47.9375 C-19.88763746 48.25173015 -19.88763746 48.25173015 -17.3125 48.1875 C-16.45527344 48.19265625 -15.59804688 48.1978125 -14.71484375 48.203125 C-12.10447202 48.08742488 -12.10447202 48.08742488 -9.375 45.9375 C-9.1247843 42.85384129 -9.1247843 42.85384129 -9.375 39.9375 C-13.62982187 38.01757387 -17.78342271 36.46102872 -22.2746582 35.20166016 C-30.74680458 32.80424674 -37.74048841 30.4655668 -42.375 22.5 C-44.27477717 15.73204384 -43.65059452 11.14983444 -40.375 4.9375 C-36.43472802 -0.75400398 -32.59907528 -2.80669383 -26.0625 -4.75 C-16.58791868 -5.8516955 -8.26300607 -5.04961482 0 0 Z " fill="#E37E74" transform="translate(374.375,718.0625)"/>
<path d="M0 0 C5.15419364 4.18386973 8.90987205 9.34026834 11.75 15.3125 C6.44905784 17.11554155 1.14691512 18.81973624 -4.25 20.3125 C-4.95125 19.219375 -5.6525 18.12625 -6.375 17 C-8.9343187 13.46842615 -11.00933465 11.69887136 -15.25 10.3125 C-20.86907817 9.47694934 -25.57961344 10.14837903 -30.51953125 13.0078125 C-33.59271144 15.32483774 -35.24625951 17.6699952 -36.25 21.3125 C-37.0357007 28.47411676 -37.09356995 35.08326595 -33.25 41.3125 C-29.45662332 45.10587668 -25.52681321 47.25945806 -20.078125 47.34765625 C-14.82299918 46.98614592 -11.34148096 45.81948368 -7.25 42.3125 C-5.38689678 39.71225951 -5.38689678 39.71225951 -4.25 37.3125 C0.86365014 38.3806847 5.82227969 39.54357476 10.75 41.3125 C8.77359369 49.21812523 4.49439131 54.52502039 -2.375 58.75 C-10.93958996 63.64595719 -21.67411112 63.58469811 -31.23828125 61.734375 C-39.91459892 58.69005301 -47.09912783 52.17445216 -51.3125 44.0625 C-55.43125217 35.09212161 -55.46801802 25.00060769 -52.27734375 15.72265625 C-48.29378173 6.37718947 -42.080262 0.33502539 -32.76953125 -3.78515625 C-21.75552474 -7.54988026 -9.67185805 -6.73543056 0 0 Z " fill="#E37F75" transform="translate(799.25,718.6875)"/>
<path d="M0 0 C4.03257335 4.54956993 6.4375 8.60965502 6.4375 14.75 C1.4875 15.41 -3.4625 16.07 -8.5625 16.75 C-9.2225 14.77 -9.8825 12.79 -10.5625 10.75 C-12.38802669 9.75425731 -12.38802669 9.75425731 -14.5625 9.75 C-15.31789063 9.69457031 -16.07328125 9.63914062 -16.8515625 9.58203125 C-17.62242187 9.57558594 -18.39328125 9.56914063 -19.1875 9.5625 C-19.96351563 9.54832031 -20.73953125 9.53414062 -21.5390625 9.51953125 C-23.79086993 9.56334164 -23.79086993 9.56334164 -25.5625 11.75 C-26.14600505 14.20709375 -26.14600505 14.20709375 -25.5625 16.75 C-21.73220363 19.59742787 -17.84929967 20.59287607 -13.25 21.6875 C2.0895301 25.5591267 2.0895301 25.5591267 6.4375 32.75 C8.95808636 38.99145195 9.06267509 44.69070617 6.56640625 50.92578125 C2.99068498 57.4957051 -2.63466133 60.44072044 -9.5625 62.75 C-19.33638007 63.48017247 -28.40936908 63.99495134 -36.5625 57.75 C-41.61696827 53.38429575 -43.41970504 49.26393127 -44.5625 42.75 C-39.58020224 40.83373163 -34.83565333 40.1952885 -29.5625 39.75 C-28.964375 40.69875 -28.36625 41.6475 -27.75 42.625 C-25.74687474 45.88964197 -25.74687474 45.88964197 -22.5625 47.75 C-19.92278052 48.10482301 -19.92278052 48.10482301 -17.0625 48.0625 C-16.1034375 48.07925781 -15.144375 48.09601562 -14.15625 48.11328125 C-11.57517694 47.9300514 -11.57517694 47.9300514 -9.71875 46.60546875 C-8.07393805 43.96599012 -8.35975446 41.79118311 -8.5625 38.75 C-9.65046875 38.53085937 -10.7384375 38.31171875 -11.859375 38.0859375 C-34.79244329 33.2397437 -34.79244329 33.2397437 -40.8125 25.0625 C-43.33960707 20.14972841 -43.29818162 15.13122172 -42.5625 9.75 C-40.80998938 4.28629043 -37.29227262 0.83622229 -32.5625 -2.25 C-29.62329345 -3.58977966 -26.69273118 -4.47307212 -23.5625 -5.25 C-22.49 -5.559375 -21.4175 -5.86875 -20.3125 -6.1875 C-13.40164529 -6.30268091 -5.60537592 -4.20403194 0 0 Z " fill="#E47F75" transform="translate(313.5625,718.25)"/>
<path d="M0 0 C5.61 0 11.22 0 17 0 C17 21.78 17 43.56 17 66 C1 65 1 65 0 64 C-0.09405142 62.0056827 -0.11743249 60.00800457 -0.11352539 58.01147461 C-0.11344986 56.73022202 -0.11337433 55.44896942 -0.11329651 54.12889099 C-0.10818909 52.72004152 -0.10297309 51.31119244 -0.09765625 49.90234375 C-0.09579202 48.46887766 -0.09436814 47.03541093 -0.09336853 45.60194397 C-0.08954372 41.82240043 -0.07971377 38.0428951 -0.06866455 34.2633667 C-0.05844963 30.40930702 -0.05387074 26.55524118 -0.04882812 22.70117188 C-0.03809145 15.13409512 -0.02049497 7.56705777 0 0 Z " fill="#E37E74" transform="translate(243,715)"/>
<path d="M0 0 C5.28 0 10.56 0 16 0 C17.15687584 11.58712148 17.15250448 23.11562607 17.13037109 34.75097656 C17.12495744 38.15173691 17.13037041 41.55236839 17.13671875 44.953125 C17.13605887 47.11718779 17.13477958 49.2812505 17.1328125 51.4453125 C17.13483673 52.46086212 17.13686096 53.47641174 17.13894653 54.5227356 C17.13579437 55.46156586 17.13264221 56.40039612 17.12939453 57.36767578 C17.12859894 58.19228302 17.12780334 59.01689026 17.12698364 59.8664856 C17 62 17 62 16 65 C13 66 13 66 0 65 C0 43.55 0 22.1 0 0 Z " fill="#E58279" transform="translate(647,715)"/>
<path d="M0 0 C5.61 0 11.22 0 17 0 C17 21.45 17 42.9 17 65 C11.72 65 6.44 65 1 65 C-0.08457182 61.74628455 -0.12046857 59.3910068 -0.11352539 55.96801758 C-0.11344986 54.72695755 -0.11337433 53.48589752 -0.11329651 52.20722961 C-0.10818991 50.85299642 -0.10297391 49.49876363 -0.09765625 48.14453125 C-0.09579083 46.75876415 -0.09436751 45.37299639 -0.09336853 43.98722839 C-0.0895531 40.3425209 -0.07973113 36.69785335 -0.06866455 33.05316162 C-0.0584295 29.33297262 -0.05386642 25.61277715 -0.04882812 21.89257812 C-0.03810798 14.59503178 -0.02051907 7.29752658 0 0 Z " fill="#E58178" transform="translate(392,715)"/>
<path d="M0 0 C7.08948201 5.77623498 13.39329861 12.31645482 19.8125 18.8125 C22.06614488 21.09270671 24.32306859 23.36959413 26.58203125 25.64453125 C27.09659378 26.16739212 27.61115631 26.69025299 28.14131165 27.22895813 C30.80906769 29.95870643 30.80906769 29.95870643 34 32 C34 32.66 34 33.32 34 34 C34.61875 34.2475 35.2375 34.495 35.875 34.75 C38.35068687 36.20628639 38.95125002 37.37812506 40 40 C40.66 40 41.32 40 42 40 C43.72904996 41.62485109 45.35990738 43.28766102 47 45 C48.39960547 46.40507669 49.80220493 47.80717447 51.20703125 49.20703125 C55.47135417 53.47135417 59.73567708 57.73567708 64 62 C67.39418594 60.86860469 68.32669179 59.45745344 70.4921875 56.734375 C72.72554415 54.16543627 75.29793009 52.05943988 77.89453125 49.8671875 C80.07154022 47.93655617 82.01665442 45.87751805 84 43.75 C87.59931552 40.13662466 90.8623888 37.70829203 96 37 C100.6985727 37.14819246 103.14702133 38.18759105 106.57839966 41.45576477 C109.93353208 45.60627179 109.72680799 49.67849517 109.70263672 54.83666992 C109.71746723 55.83682192 109.73229774 56.83697392 109.74757767 57.86743355 C109.79094512 61.25949675 109.79791575 64.65064811 109.8046875 68.04296875 C109.82718046 70.50873951 109.85147976 72.97449433 109.87741089 75.44023132 C109.94888333 83.18357312 109.9736485 90.92666808 109.9932766 98.67028713 C110.00486331 102.68517527 110.02268859 106.70003653 110.03967285 110.71490479 C110.13094867 133.10985527 110.14303798 155.50448323 110.12857318 177.8995856 C110.12418112 185.46936904 110.12736034 193.03913607 110.1321975 200.60891849 C110.13674133 208.02332362 110.13737565 215.43772166 110.13475883 222.85212773 C110.13321462 227.23185472 110.13295241 231.61157053 110.13629532 235.99129677 C110.13919592 240.06887814 110.13715846 244.1464286 110.13140106 248.22400665 C110.13008912 249.70782355 110.13044064 251.1916431 110.13266373 252.67545891 C110.1354352 254.71367124 110.13192339 256.75178695 110.12698364 258.78999329 C110.1264181 260.49083305 110.1264181 260.49083305 110.12584114 262.22603321 C109.9612462 267.16222371 109.44715007 272.08134928 109 277 C162.13 277 215.26 277 270 277 C270 277.33 270 277.66 270 278 C216.54 278 163.08 278 108 278 C107.96261719 261.38269531 107.92523438 244.76539063 107.88671875 227.64453125 C107.85645589 217.1399655 107.82544186 206.63541094 107.79101562 196.13085938 C107.7729652 190.61417715 107.7551012 185.09749438 107.73754883 179.58081055 C107.73534114 178.88937531 107.73313345 178.19794007 107.73085886 177.48555225 C107.69547997 166.31995148 107.67062664 155.15435079 107.64965298 143.98871473 C107.62789754 132.53144637 107.59462668 121.07426489 107.55129844 109.61705512 C107.52732482 103.18099389 107.50862316 96.74501335 107.50238609 90.30890846 C107.496354 84.25393529 107.47642203 78.19916868 107.44572449 72.14427185 C107.43691415 69.91944498 107.43322784 67.69459116 107.43499184 65.46974754 C107.43663775 62.43656644 107.42000331 59.40402013 107.39872742 56.3709259 C107.40357499 55.48668105 107.40842257 54.60243621 107.41341704 53.69139606 C107.35863582 48.97234981 107.06405692 45.83412084 104 42 C100.47585191 39.60042762 97.57723642 39.65405113 93.47265625 40.29077148 C90.68959842 41.08903205 89.38575729 42.06069473 87.265625 44.0078125 C86.57758789 44.63776123 85.88955078 45.26770996 85.18066406 45.91674805 C81.39501178 49.53329204 77.68117663 53.21485431 74 56.9375 C73.22527344 57.71673828 72.45054687 58.49597656 71.65234375 59.29882812 C69.76589243 61.1969242 67.88183755 63.09733149 66 65 C63.26265518 63.73680902 61.1401852 62.41378517 58.94140625 60.35546875 C58.39033203 59.84306641 57.83925781 59.33066406 57.27148438 58.80273438 C56.70751953 58.26970703 56.14355469 57.73667969 55.5625 57.1875 C55.00240234 56.66607422 54.44230469 56.14464844 53.86523438 55.60742188 C52.23322374 54.08205371 50.61490575 52.54344529 49 51 C48.24565674 50.29157959 48.24565674 50.29157959 47.47607422 49.56884766 C46.27801106 48.4188927 45.13331683 47.21381411 44 46 C44 45.34 44 44.68 44 44 C43.42509827 43.74976074 42.85019653 43.49952148 42.25787354 43.24169922 C39.684856 41.82668912 37.95245089 40.20652697 35.87402344 38.1328125 C35.07349548 37.33858887 34.27296753 36.54436523 33.44818115 35.72607422 C32.59387512 34.86771973 31.73956909 34.00936523 30.859375 33.125 C29.97719299 32.24473145 29.09501099 31.36446289 28.18609619 30.45751953 C25.84788561 28.12101752 23.51461799 25.77970581 21.18286133 23.43676758 C19.27309251 21.52179237 17.35595907 19.61427599 15.43880844 17.70669556 C13.1574764 15.43430977 10.88375806 13.15433769 8.609375 10.875 C7.74697205 10.01664551 6.88456909 9.15829102 5.99603271 8.27392578 C5.2081134 7.47970215 4.42019409 6.68547852 3.60839844 5.8671875 C2.90986755 5.16706543 2.21133667 4.46694336 1.49163818 3.74560547 C0 2 0 2 0 0 Z " fill="#D35E4C" transform="translate(263,334)"/>
<path d="M0 0 C0.66 0 1.32 0 2 0 C2.00634791 1.66427851 2.00634791 1.66427851 2.01282406 3.3621788 C2.11592973 30.33529708 2.22466682 57.30838815 2.33933926 84.28145981 C2.39466259 97.32532602 2.44814315 110.36919497 2.49731445 123.41308594 C2.54016716 134.77958355 2.58644794 146.14606109 2.63687855 157.5125277 C2.66347069 163.53326553 2.6883236 169.5539994 2.70907402 175.57476044 C2.72864686 181.2381502 2.75279268 186.9015018 2.78049088 192.56485748 C2.78985786 194.64659431 2.79753441 196.72833952 2.80341911 198.81008911 C2.81168623 201.64636362 2.82596474 204.48254565 2.84178162 207.31878662 C2.84275972 208.14758009 2.84373783 208.97637355 2.84474558 209.83028197 C2.87035755 213.38767888 3.04340776 216.57650975 4 220 C1.7522025 217.94766315 0.9977758 216.99332739 0 214 C-0.09395848 211.21380798 -0.13029414 208.45298216 -0.12025452 205.66682434 C-0.12110894 204.80671507 -0.12196337 203.9466058 -0.12284368 203.06043261 C-0.12449568 200.1676275 -0.11898165 197.27487989 -0.11352539 194.38208008 C-0.11324343 192.31269838 -0.11340142 190.24331658 -0.1139679 188.17393494 C-0.11425553 182.54618418 -0.1083642 176.9184546 -0.10139394 171.29070878 C-0.09515484 165.41301979 -0.09455616 159.53533034 -0.09336853 153.65763855 C-0.09025686 142.52295364 -0.08204567 131.38827851 -0.07201904 120.25359792 C-0.06085282 107.57904287 -0.05534617 94.90448735 -0.05032361 82.22992861 C-0.03986294 56.15328031 -0.02226666 30.0766407 0 4 C-0.66 3.67 -1.32 3.34 -2 3 C-1.34 2.01 -0.68 1.02 0 0 Z " fill="#DC7061" transform="translate(347,410)"/>
<path d="M0 0 C4.7875368 0.09355263 9.57456894 0.19964984 14.36157227 0.31738281 C15.99007549 0.35566618 17.61866309 0.39052024 19.24731445 0.421875 C21.58836014 0.46754002 23.9288253 0.52553077 26.26953125 0.5859375 C26.99775589 0.59748871 27.72598053 0.60903992 28.47627258 0.62094116 C32.16961374 0.72878512 33.84826414 0.89884276 37 3 C25.12 3 13.24 3 1 3 C1 31.71 1 60.42 1 90 C5.29 90 9.58 90 14 90 C14 80.43 14 70.86 14 61 C20.93 61 27.86 61 35 61 C35 61.33 35 61.66 35 62 C29.06 62.33 23.12 62.66 17 63 C16.67 72.57 16.34 82.14 16 92 C13.380625 92.020625 10.76125 92.04125 8.0625 92.0625 C7.2362915 92.071604 6.41008301 92.08070801 5.55883789 92.09008789 C3.70566241 92.09723945 1.85250692 92.0502852 0 92 C-1.81799608 90.18200392 -1.12639799 87.66963525 -1.13552856 85.2497406 C-1.13350433 84.42426224 -1.1314801 83.59878387 -1.12939453 82.74829102 C-1.13114685 81.88328979 -1.13289917 81.01828857 -1.13470459 80.1270752 C-1.13912473 77.25266545 -1.13618429 74.37831668 -1.1328125 71.50390625 C-1.13348555 69.51472461 -1.13445559 67.52554305 -1.13571167 65.53636169 C-1.13718891 61.36074035 -1.13503347 57.18514035 -1.13037109 53.00952148 C-1.12467749 47.64797291 -1.12795032 42.28647444 -1.13394356 36.92492771 C-1.13755161 32.8149528 -1.13640939 28.70498983 -1.13381577 24.59501457 C-1.13314698 22.61778698 -1.13397323 20.64055832 -1.13629532 18.66333199 C-1.13882542 15.90255984 -1.13497598 13.14186954 -1.12939453 10.38110352 C-1.13141876 9.55764938 -1.13344299 8.73419525 -1.13552856 7.88578796 C-1.11426323 2.22852647 -1.11426323 2.22852647 0 0 Z " fill="#DE7264" transform="translate(575,688)"/>
<path d="M0 0 C0.99 0.495 0.99 0.495 2 1 C2.98226562 0.95359375 3.96453125 0.9071875 4.9765625 0.859375 C8.93852211 0.74060105 12.16871893 0.9593527 16 2 C19.19650018 5.05531201 20.86102833 8.66093901 22.77294922 12.61230469 C24.27244763 15.53015078 25.93949927 18.32071193 27.62890625 21.1328125 C28.27537109 22.21038818 28.92183594 23.28796387 29.58789062 24.39819336 C30.23951172 25.48366455 30.89113281 26.56913574 31.5625 27.6875 C32.82333339 29.78988614 34.07532946 31.89760979 35.31640625 34.01171875 C35.85724854 34.92397217 36.39809082 35.83622559 36.95532227 36.77612305 C37.30006592 37.51000244 37.64480957 38.24388184 38 39 C37.505 39.99 37.505 39.99 37 41 C31.89865631 32.83168533 26.92710755 24.58691877 22 16.3125 C21.4119458 15.33200684 20.8238916 14.35151367 20.21801758 13.34130859 C19.67169678 12.42043457 19.12537598 11.49956055 18.5625 10.55078125 C18.06878906 9.72231689 17.57507813 8.89385254 17.06640625 8.0402832 C16 6 16 6 16 4 C11.05 4 6.1 4 1 4 C1 32.38 1 60.76 1 90 C5.29 90 9.58 90 14 90 C14 69.54 14 49.08 14 28 C14.99 28.66 15.98 29.32 17 30 C17.32952881 32.54957581 17.32952881 32.54957581 17.26464844 35.81079102 C17.24762878 37.02867813 17.23060913 38.24656525 17.21307373 39.50135803 C17.17897496 40.8355528 17.14439727 42.1697354 17.109375 43.50390625 C17.08388175 44.86626565 17.05958492 46.22864791 17.03643799 47.59104919 C16.98484052 50.44696122 16.92332666 53.30242302 16.85400391 56.15795898 C16.76510955 59.82553844 16.69367541 63.49318202 16.62871933 67.16125584 C16.5660608 70.65060473 16.4940995 74.13974474 16.421875 77.62890625 C16.40244465 78.63353 16.40244465 78.63353 16.38262177 79.65844917 C16.34457383 81.54527892 16.29894655 83.4319513 16.25292969 85.31860352 C16.22833679 86.39400894 16.2037439 87.46941437 16.17840576 88.57740784 C16 91 16 91 15 92 C10.05 92 5.1 92 0 92 C0 61.64 0 31.28 0 0 Z " fill="#D97061" transform="translate(142,688)"/>
<path d="M0 0 C3.39512672 1.45505431 5.71110257 3.07968259 8 6 C8.75 9.75 8.75 9.75 9 13 C5.79511078 15.85979363 3.76062882 16.3705369 -0.49951172 16.35302734 C-2.15175247 16.35851089 -2.15175247 16.35851089 -3.83737183 16.36410522 C-5.022836 16.35480988 -6.20830017 16.34551453 -7.4296875 16.3359375 C-9.94140884 16.34844968 -12.4531276 16.36148679 -14.96484375 16.375 C-18.92375757 16.37893188 -22.88241881 16.3749726 -26.84130859 16.36035156 C-30.66281908 16.35178422 -34.4832702 16.37346174 -38.3046875 16.3984375 C-39.48610321 16.38509369 -40.66751892 16.37174988 -41.88473511 16.35800171 C-48.57520951 16.33989266 -48.57520951 16.33989266 -54.75024414 18.58618164 C-59.13320677 23.20494945 -57.78426055 31.26907473 -57.69140625 37.22265625 C-57.68782721 38.73050075 -57.68647214 40.23835201 -57.6872406 41.74620056 C-57.68255584 44.90129677 -57.65776693 48.05536697 -57.61743164 51.21020508 C-57.5664169 55.25116286 -57.55499031 59.29099608 -57.55726719 63.3322382 C-57.55645092 66.44387009 -57.53998974 69.55525688 -57.51826286 72.66680717 C-57.50872801 74.15671371 -57.50280652 75.64664795 -57.50058174 77.13658333 C-57.49406553 79.21922106 -57.46778536 81.30067427 -57.43579102 83.38305664 C-57.42435562 84.56710587 -57.41292023 85.75115509 -57.40113831 86.97108459 C-56.96286203 90.28042142 -56.3498879 91.66613696 -54 94 C-50.98509443 95.00496852 -48.95818308 95.10335303 -45.8125 95.0625 C-44.91144531 95.05347656 -44.01039063 95.04445313 -43.08203125 95.03515625 C-42.39496094 95.02355469 -41.70789063 95.01195312 -41 95 C-43.24538993 97.55743808 -43.74521485 97.96634913 -47.3125 98.4375 C-51.67072189 97.92042283 -53.6585916 96.8098207 -57 94 C-59.88014602 90.08835746 -60.38128601 87.28648009 -60.40405273 82.46899414 C-60.41673691 81.16736832 -60.42942108 79.86574249 -60.44248962 78.52467346 C-60.44043799 77.11149944 -60.4374498 75.6983265 -60.43359375 74.28515625 C-60.43815811 72.82693743 -60.44346445 71.36872076 -60.44947815 69.9105072 C-60.45839953 66.85829922 -60.45599758 63.80635302 -60.44604492 60.75415039 C-60.43455852 56.8523327 -60.45476542 52.95142049 -60.48396206 49.04972172 C-60.50235285 46.03928434 -60.50202592 43.02906278 -60.49632454 40.0185833 C-60.49617166 38.58053759 -60.50218823 37.14247695 -60.51461601 35.70448494 C-60.52957501 33.68984103 -60.51619368 31.67504776 -60.50170898 29.66040039 C-60.50154282 28.51632217 -60.50137665 27.37224396 -60.50120544 26.1934967 C-59.73483084 21.31043968 -57.47446923 18.1164261 -53.56591797 15.15698242 C-48.07141784 13.37426052 -42.68771918 13.51846088 -36.9453125 13.48828125 C-35.68862762 13.47033005 -34.43194275 13.45237885 -33.13717651 13.43388367 C-29.81304376 13.38899089 -26.48927661 13.3566396 -23.16497803 13.33044434 C-19.76610078 13.30054666 -16.36745402 13.25404827 -12.96875 13.20898438 C-6.31260674 13.12408366 0.34355196 13.05572151 7 13 C5.40935725 7.94027375 5.40935725 7.94027375 2.375 3.6875 C0 1 0 1 0 0 Z " fill="#E07162" transform="translate(592,450)"/>
<path d="M0 0 C3.98654225 2.16659905 4.82707609 3.44482322 6.1875 7.8125 C6.41775144 11.31890051 5.60996311 13.21122838 3.5 16 C1.00318695 18.52571135 0.12823315 18.97481135 -3.5 19.6875 C-7.6342115 18.87542274 -9.84217316 17.79063767 -13 15 C-14.5625 12.1875 -14.5625 12.1875 -15 9 C-13.86619928 5.06504456 -12.82086656 2.72965916 -9.75 0 C-6.03378093 -1.35135239 -3.80300159 -1.01866114 0 0 Z " fill="#E47E73" transform="translate(659,689)"/>
<path d="M0 0 C4.57627119 3.15254237 4.57627119 3.15254237 6 6 C6.41204834 10.63554388 5.87454146 13.30416098 3 17 C-0.42094119 19.56570589 -3.84773484 19.43708054 -8 19 C-10.75329021 17.20437595 -12.52627461 15.94745078 -14 13 C-14.37510464 9.74909308 -14.66540869 7.15611549 -12.98828125 4.2421875 C-8.974492 -0.74792886 -6.09005561 -1.58341446 0 0 Z " fill="#E47F74" transform="translate(405,689)"/>
<path d="M0 0 C2.3291128 3.36427405 2.76273859 6.38297603 2.6875 10.4375 C1.90606209 13.06597296 0.9152379 14.1922438 -0.9375 16.1875 C-4.36347628 17.99064541 -7.58039208 18.25204736 -11.3125 17.4375 C-14.92641202 14.51561368 -17.05562565 12.32124526 -17.6875 7.6875 C-17.15878755 3.10532548 -15.59787582 1.64820819 -12.3125 -1.5625 C-8.16970915 -3.56707622 -3.70495472 -2.50334778 0 0 Z " fill="#E37E73" transform="translate(259.3125,690.5625)"/>
<path d="M0 0 C0 29.37 0 58.74 0 89 C-4.62 89 -9.24 89 -14 89 C-14 88.67 -14 88.34 -14 88 C-10.04 88 -6.08 88 -2 88 C-2 59.62 -2 31.24 -2 2 C-6.62 2.33 -11.24 2.66 -16 3 C-19.51282561 7.08153888 -21.5281881 10.01123774 -23.875 14.6875 C-24.49866455 15.82622559 -25.1223291 16.96495117 -25.76489258 18.13818359 C-26.99487802 20.3908842 -28.20466805 22.65475193 -29.39208984 24.93017578 C-31.38186024 28.72904807 -33.5214181 32.42527275 -35.6875 36.125 C-36.79330788 38.08240706 -37.89755755 40.0406955 -39 42 C-40.33045635 44.33498956 -41.66509363 46.66754923 -43 49 C-43.99 49 -44.98 49 -46 49 C-44.72840332 46.45680664 -43.27407197 44.04807819 -41.82421875 41.6015625 C-40.83844849 39.93552979 -40.83844849 39.93552979 -39.83276367 38.23583984 C-38.39256251 35.80790276 -36.94530123 33.38434062 -35.4934082 30.96337891 C-32.10023555 25.2956774 -28.76155669 19.62981594 -25.65625 13.796875 C-25.15005127 12.87438965 -24.64385254 11.9519043 -24.12231445 11.00146484 C-23.19012907 9.29507547 -22.28816264 7.57170065 -21.42260742 5.83056641 C-19.49741979 2.37641355 -18.30161425 0.386045 -14.40869141 -0.76855469 C-9.27024479 -1.33302829 -5.16218263 -0.86036377 0 0 Z " fill="#DB6F60" transform="translate(230,690)"/>
<path d="M0 0 C2.98055867 2.56272334 5.43479995 5.2010216 7.671875 8.4375 C8.08695313 9.03691406 8.50203125 9.63632812 8.9296875 10.25390625 C13.55927405 18.52565005 11.671875 25.22596882 11.671875 35.4375 C-3.838125 35.7675 -19.348125 36.0975 -35.328125 36.4375 C-31.48926597 43.65400778 -31.48926597 43.65400778 -25.41796875 47.0390625 C-18.37975224 48.38092808 -12.57345208 48.12064161 -6.328125 44.4375 C-5.338125 44.9325 -5.338125 44.9325 -4.328125 45.4375 C-10.85944443 49.93685339 -15.47170361 51.26510522 -23.328125 50.4375 C-29.19099506 48.66240958 -33.02946124 45.53543491 -36.328125 40.4375 C-36.658125 38.1275 -36.988125 35.8175 -37.328125 33.4375 C-21.488125 33.4375 -5.648125 33.4375 10.671875 33.4375 C9.2938686 16.24420741 9.2938686 16.24420741 0.359375 3 C-8.18377352 -3.40282681 -18.00409261 -3.78999116 -28.328125 -2.5625 C-31.23592985 -1.74732655 -33.75294293 -0.78837532 -36.4453125 0.5625 C-38.328125 1.4375 -38.328125 1.4375 -41.328125 1.4375 C-28.8579015 -7.60952489 -13.02570044 -9.35178493 0 0 Z " fill="#D96E5F" transform="translate(869.328125,718.5625)"/>
<path d="M0 0 C5.28 0 10.56 0 16 0 C17.15687584 11.58712148 17.15250448 23.11562607 17.13037109 34.75097656 C17.12495744 38.15173691 17.13037041 41.55236839 17.13671875 44.953125 C17.13605887 47.11718779 17.13477958 49.2812505 17.1328125 51.4453125 C17.13483673 52.46086212 17.13686096 53.47641174 17.13894653 54.5227356 C17.13579437 55.46156586 17.13264221 56.40039612 17.12939453 57.36767578 C17.12859894 58.19228302 17.12780334 59.01689026 17.12698364 59.8664856 C17 62 17 62 16 65 C13 66 13 66 0 65 C0 43.55 0 22.1 0 0 Z M2 1 C2 21.46 2 41.92 2 63 C6.29 63 10.58 63 15 63 C15 42.54 15 22.08 15 1 C10.71 1 6.42 1 2 1 Z " fill="#DA7061" transform="translate(647,715)"/>
<path d="M0 0 C0.66 0 1.32 0 2 0 C2 20.79 2 41.58 2 63 C6.29 63 10.58 63 15 63 C14.98428955 61.9262915 14.9685791 60.85258301 14.95239258 59.74633789 C14.89770046 55.72639601 14.86350842 51.70648638 14.83520508 47.6862793 C14.82020731 45.95314994 14.79980228 44.22005796 14.77368164 42.48706055 C14.73689797 39.98216475 14.72018349 37.4777748 14.70703125 34.97265625 C14.69154739 34.20977798 14.67606354 33.44689972 14.66011047 32.66090393 C14.65844828 27.23192674 15.30482961 21.80653861 18 17 C20.10823059 15.74598694 20.10823059 15.74598694 22 15 C21.525625 15.7425 21.05125 16.485 20.5625 17.25 C17.76071166 22.18114748 17.80177468 26.90726079 17.68359375 32.484375 C17.66281265 33.29996887 17.64203156 34.11556274 17.62062073 34.95587158 C17.55538703 37.55383105 17.49636232 40.15188913 17.4375 42.75 C17.39428986 44.514333 17.35067478 46.27865613 17.30664062 48.04296875 C17.19973255 52.36187884 17.09839173 56.68088784 17 61 C17.66 61.33 18.32 61.66 19 62 C18.34 62 17.68 62 17 62 C16.67 62.99 16.34 63.98 16 65 C11.38 65 6.76 65 2 65 C1.67 65.99 1.34 66.98 1 68 C-0.31427506 61.01933491 -0.12581355 54.05480747 -0.09765625 46.97265625 C-0.0957884 45.61502637 -0.09436623 44.25739581 -0.09336853 42.89976501 C-0.08957222 39.34717916 -0.07976696 35.79463496 -0.06866455 32.24206543 C-0.05838801 28.60864831 -0.0538576 24.97522438 -0.04882812 21.34179688 C-0.03814177 14.22784767 -0.02110049 7.11392657 0 0 Z " fill="#DD7264" transform="translate(421,715)"/>
<path d="M0 0 C7.08948201 5.77623498 13.39329861 12.31645482 19.8125 18.8125 C22.06614488 21.09270671 24.32306859 23.36959413 26.58203125 25.64453125 C27.09659378 26.16739212 27.61115631 26.69025299 28.14131165 27.22895813 C30.80906769 29.95870643 30.80906769 29.95870643 34 32 C34 32.66 34 33.32 34 34 C34.61875 34.2475 35.2375 34.495 35.875 34.75 C38.35068687 36.20628639 38.95125002 37.37812506 40 40 C40.66 40 41.32 40 42 40 C43.72904996 41.62485109 45.35990738 43.28766102 47 45 C48.39960547 46.40507669 49.80220493 47.80717447 51.20703125 49.20703125 C55.47135417 53.47135417 59.73567708 57.73567708 64 62 C67.39418594 60.86860469 68.32669179 59.45745344 70.4921875 56.734375 C72.72554415 54.16543627 75.29793009 52.05943988 77.89453125 49.8671875 C80.07154022 47.93655617 82.01665442 45.87751805 84 43.75 C87.59931552 40.13662466 90.8623888 37.70829203 96 37 C99.79354926 37.11964812 102.7247519 37.88531583 105.61328125 40.41015625 C109 44.29295775 109 44.29295775 109 47 C108.34 47 107.68 47 107 47 C106.54625 46.21625 106.0925 45.4325 105.625 44.625 C103.84874134 41.75565908 103.06179824 41.188243 100 40 C96.07113065 39.57904971 92.38513352 40.03582446 89.10253906 42.32080078 C88.49635742 42.87751465 87.89017578 43.43422852 87.265625 44.0078125 C86.57758789 44.63776123 85.88955078 45.26770996 85.18066406 45.91674805 C81.39501178 49.53329204 77.68117663 53.21485431 74 56.9375 C73.22527344 57.71673828 72.45054687 58.49597656 71.65234375 59.29882812 C69.76589243 61.1969242 67.88183755 63.09733149 66 65 C63.26265518 63.73680902 61.1401852 62.41378517 58.94140625 60.35546875 C58.39033203 59.84306641 57.83925781 59.33066406 57.27148438 58.80273438 C56.70751953 58.26970703 56.14355469 57.73667969 55.5625 57.1875 C55.00240234 56.66607422 54.44230469 56.14464844 53.86523438 55.60742188 C52.23322374 54.08205371 50.61490575 52.54344529 49 51 C48.24565674 50.29157959 48.24565674 50.29157959 47.47607422 49.56884766 C46.27801106 48.4188927 45.13331683 47.21381411 44 46 C44 45.34 44 44.68 44 44 C43.42509827 43.74976074 42.85019653 43.49952148 42.25787354 43.24169922 C39.684856 41.82668912 37.95245089 40.20652697 35.87402344 38.1328125 C35.07349548 37.33858887 34.27296753 36.54436523 33.44818115 35.72607422 C32.59387512 34.86771973 31.73956909 34.00936523 30.859375 33.125 C29.97719299 32.24473145 29.09501099 31.36446289 28.18609619 30.45751953 C25.84788561 28.12101752 23.51461799 25.77970581 21.18286133 23.43676758 C19.27309251 21.52179237 17.35595907 19.61427599 15.43880844 17.70669556 C13.1574764 15.43430977 10.88375806 13.15433769 8.609375 10.875 C7.74697205 10.01664551 6.88456909 9.15829102 5.99603271 8.27392578 C5.2081134 7.47970215 4.42019409 6.68547852 3.60839844 5.8671875 C2.90986755 5.16706543 2.21133667 4.46694336 1.49163818 3.74560547 C0 2 0 2 0 0 Z " fill="#DE6F5E" transform="translate(263,334)"/>
<path d="M0 0 C3.36179774 1.44077046 5.59156268 3.24750021 8 6 C8 6.66 8 7.32 8 8 C8.59941406 8.26167969 9.19882813 8.52335937 9.81640625 8.79296875 C12.13061764 10.07220188 13.29659445 11.26250442 14.9375 13.3125 C18.9948158 18.22185212 23.45872158 22.41952134 28.3046875 26.53125 C31.66999661 29.44681734 34.63103445 32.54588855 37.4375 36 C40.06751232 39.07903881 42.8625034 41.45078401 46 44 C48.47720235 46.35924033 50.73701792 48.65540279 52.8125 51.375 C54.62628435 53.55154122 56.29791269 55.18269362 58.4375 57 C63.01443215 60.88867168 67.17974679 65.14723093 71.34350586 69.46875 C76.45327853 74.86735997 76.45327853 74.86735997 83.28125 77.21484375 C88.29361296 76.58829838 91.29220462 75.70779538 95 72 C95.66 72.33 96.32 72.66 97 73 C94.18800951 76.22467169 91.59525327 78.60947064 87.3671875 79.64453125 C82.29083785 79.94854662 78.86029529 79.46811097 74.9375 76.125 C73.60032569 74.7739833 72.29023612 73.3959126 71 72 C69.21229865 70.20437678 67.42051556 68.41280949 65.625 66.625 C64.79226563 65.77164063 63.95953125 64.91828125 63.1015625 64.0390625 C61.16903954 61.95873909 61.16903954 61.95873909 59 61 C59 60.34 59 59.68 59 59 C58.4225 58.7525 57.845 58.505 57.25 58.25 C54.67060021 56.81700012 52.93878408 55.21575324 51 53 C51 52.34 51 51.68 51 51 C50.46890625 50.79375 49.9378125 50.5875 49.390625 50.375 C45.99226564 48.42038808 43.48944072 45.77876283 40.75 43 C39.91855469 42.18015625 39.91855469 42.18015625 39.0703125 41.34375 C35 37.2533867 35 37.2533867 35 35 C34.40237854 34.72704102 33.80475708 34.45408203 33.18902588 34.17285156 C31.0615941 33.03300132 29.67459528 31.92785057 27.97558594 30.234375 C27.13516754 29.40341309 27.13516754 29.40341309 26.277771 28.55566406 C25.68595032 27.95979492 25.09412964 27.36392578 24.484375 26.75 C23.86854553 26.13608398 23.25271606 25.52216797 22.6182251 24.88964844 C21.32147354 23.59425517 20.02723343 22.29634356 18.73535156 20.99609375 C16.75024798 19.00024932 14.75466409 17.01533274 12.7578125 15.03125 C11.49935789 13.77147445 10.24152346 12.51107899 8.984375 11.25 C8.3844574 10.65413086 7.78453979 10.05826172 7.16644287 9.44433594 C3 5.22993247 3 5.22993247 3 3 C2.01 2.67 1.02 2.34 0 2 C0 1.34 0 0.68 0 0 Z " fill="#DD6F5F" transform="translate(242,348)"/>
<path d="M0 0 C5.22558534 4.50481495 7.36191427 10.23629131 8 17 C8.11957466 21.00315169 8.21153968 24.99941143 8 29 C7 30 7 30 5.09544373 30.12025452 C4.26271439 30.11803391 3.42998505 30.11581329 2.57202148 30.11352539 C1.63112167 30.11344986 0.69022186 30.11337433 -0.27919006 30.11329651 C-1.30209641 30.10813522 -2.32500275 30.10297394 -3.37890625 30.09765625 C-4.42070541 30.0962413 -5.46250458 30.09482635 -6.53587341 30.09336853 C-9.87811094 30.0877508 -13.22028257 30.0751953 -16.5625 30.0625 C-18.82226466 30.05748728 -21.08203037 30.05292398 -23.34179688 30.04882812 C-28.89455391 30.03777561 -34.44727225 30.02102024 -40 30 C-37.47716307 35.1895486 -35.65004104 37.67854212 -31 41 C-27.83621936 42.07020064 -24.82545103 42.16466036 -21.5 42.1875 C-20.5615625 42.20167969 -19.623125 42.21585938 -18.65625 42.23046875 C-15.91200728 41.99236534 -14.41943867 41.21484527 -12 40 C-10.515 40.495 -10.515 40.495 -9 41 C-14.7396658 44.77178038 -20.15214728 45.71739409 -27 45 C-33.35093566 42.95478343 -36.99532998 39.83418865 -40.8125 34.4375 C-42 32 -42 32 -42 28 C-26.16 28 -10.32 28 6 28 C5.28481859 17.98746028 4.70607715 11.72472329 1 3 C0.505 1.515 0.505 1.515 0 0 Z " fill="#DE7062" transform="translate(730,724)"/>
<path d="M0 0 C5.28 0 10.56 0 16 0 C16 21.45 16 42.9 16 65 C10.72 65 5.44 65 0 65 C-1.01873899 61.94378302 -1.12905368 59.87116855 -1.1328125 56.671875 C-1.13474609 55.57584961 -1.13667969 54.47982422 -1.13867188 53.35058594 C-1.13416016 52.16239258 -1.12964844 50.97419922 -1.125 49.75 C-1.12306641 48.52829102 -1.12113281 47.30658203 -1.11914062 46.04785156 C-1.05376252 31.69009317 -0.54841594 17.34632758 0 3 C0.33 3 0.66 3 1 3 C1 22.8 1 42.6 1 63 C5.62 63 10.24 63 15 63 C15 42.54 15 22.08 15 1 C10.05 1 5.1 1 0 1 C0 0.67 0 0.34 0 0 Z " fill="#D76A5B" transform="translate(393,715)"/>
<path d="M0 0 C4.35161355 1.46665494 7.68498083 3.80780923 11.25 6.625 C11.81847656 7.0686792 12.38695312 7.5123584 12.97265625 7.96948242 C19.69940051 13.2660343 25.95582049 18.9399217 32 25 C32.81229568 25.81229568 33.62459137 26.62459137 34.46150208 27.46150208 C49.97433472 42.97433472 65.48716736 58.48716736 81 74 C78 74 78 74 76.21247864 72.56651306 C75.5504393 71.89479568 74.88839996 71.22307831 74.20629883 70.53100586 C73.45153763 69.77279037 72.69677643 69.01457489 71.91914368 68.23338318 C71.10664658 67.40226517 70.29414948 66.57114716 69.45703125 65.71484375 C68.19338997 64.44127769 68.19338997 64.44127769 66.90422058 63.14198303 C64.19983215 60.4141218 61.50573865 57.67636641 58.8125 54.9375 C56.13549183 52.22529658 53.4563334 49.5152703 50.77433777 46.80799866 C49.10480544 45.12165699 47.43837961 43.43223215 45.77558899 41.73924255 C41.58136021 37.49189416 37.31923771 33.41762785 32.76811218 29.55328369 C30.29877471 27.38397472 28.04843778 25.02834969 25.77368164 22.65869141 C18.71531588 15.31177304 11.25321997 9.11517106 2.97265625 3.1953125 C1.99167969 2.47085937 1.01070312 1.74640625 0 1 C0 0.67 0 0.34 0 0 Z " fill="#DD6D5B" transform="translate(679,259)"/>
<path d="M0 0 C2.10483746 3.15725619 2.2472059 3.87374611 2.22705078 7.47143555 C2.22689972 8.37214279 2.22674866 9.27285004 2.22659302 10.20085144 C2.21627045 11.16968765 2.20594788 12.13852386 2.1953125 13.13671875 C2.1924826 14.13129593 2.18965271 15.12587311 2.18673706 16.15058899 C2.17553489 19.3296813 2.15043014 22.50849272 2.125 25.6875 C2.11497025 27.84179281 2.10584439 29.99609003 2.09765625 32.15039062 C2.07559541 37.43370211 2.04106521 42.71680342 2 48 C-2.95 48 -7.9 48 -13 48 C-13.33 48.66 -13.66 49.32 -14 50 C-15.00005149 45.13106243 -15.05548724 40.48010723 -14.87890625 35.5390625 C-14.85529526 34.74849457 -14.83168427 33.95792664 -14.80735779 33.1434021 C-14.73124603 30.63706107 -14.64699864 28.13107088 -14.5625 25.625 C-14.50922664 23.91798549 -14.45648667 22.21095424 -14.40429688 20.50390625 C-14.27570269 16.33571851 -14.13981524 12.16782582 -14 8 C-13.67 8 -13.34 8 -13 8 C-13 20.54 -13 33.08 -13 46 C-8.71 46 -4.42 46 0 46 C0 30.82 0 15.64 0 0 Z " fill="#DB6F60" transform="translate(479,732)"/>
<path d="M0 0 C0.99 0.495 0.99 0.495 2 1 C1.10464035 1.89313904 0.2092807 2.78627808 -0.71321106 3.70648193 C-9.14724653 12.1202533 -17.57864607 20.53665813 -26.00746632 28.95565414 C-30.34097345 33.28394079 -34.67540673 37.61129147 -39.01196289 41.93652344 C-43.19625325 46.10995539 -47.37810231 50.28581918 -51.55826378 54.46338654 C-53.15419339 56.05746724 -54.75100348 57.65066694 -56.34870338 59.24297333 C-58.58481645 61.47183687 -60.81779 63.70380073 -63.05004883 65.93652344 C-64.04374985 66.92483154 -64.04374985 66.92483154 -65.05752563 67.93310547 C-67.48034006 70.36138033 -69.76403799 72.6816058 -71.80937195 75.44146729 C-72.20227921 75.95578308 -72.59518646 76.47009888 -73 77 C-73.66 77 -74.32 77 -75 77 C-73.67958555 74.07742561 -72.25571935 72.00741791 -69.98812866 69.74761963 C-69.37114609 69.12788773 -68.75416351 68.50815582 -68.1184845 67.86964417 C-67.44307114 67.20142136 -66.76765778 66.53319855 -66.07177734 65.84472656 C-65.35947464 65.13213181 -64.64717194 64.41953705 -63.9132843 63.68534851 C-61.5588785 61.33233549 -59.19746875 58.9864849 -56.8359375 56.640625 C-55.20168245 55.01010025 -53.56786854 53.37913324 -51.93447876 51.7477417 C-47.63493527 47.45583324 -43.32941935 43.16996486 -39.02264404 38.88531494 C-34.62866977 34.51180178 -30.24035397 30.13261921 -25.8515625 25.75390625 C-17.23991236 17.16370375 -8.62194389 8.5798698 0 0 Z " fill="#DE705F" transform="translate(758,336)"/>
<path d="M0 0 C0.99 0.495 0.99 0.495 2 1 C-21.76 24.76 -45.52 48.52 -70 73 C-70 70 -70 70 -68.36694336 68.04223633 C-67.23977905 66.94818481 -67.23977905 66.94818481 -66.08984375 65.83203125 C-65.26419922 65.02056641 -64.43855469 64.20910156 -63.58789062 63.37304688 C-62.71326172 62.52806641 -61.83863281 61.68308594 -60.9375 60.8125 C-55.59983116 55.61283933 -50.34701607 50.44751908 -45.55419922 44.73461914 C-43.29947123 42.21815003 -40.75211797 40.10393664 -38.1796875 37.921875 C-33.91533771 34.16191067 -29.98886717 30.04743129 -26 26 C-24.33411832 24.33254871 -22.66735312 22.66597993 -21 21 C-19.76479614 19.76479614 -19.76479614 19.76479614 -18.50463867 18.50463867 C-9.25231934 9.25231934 -9.25231934 9.25231934 0 0 Z " fill="#D96957" transform="translate(308,255)"/>
<path d="M0 0 C0.99 0.99 0.99 0.99 2 2 C0.60386935 1.85704109 -0.79189308 1.71048442 -2.1875 1.5625 C-2.96480469 1.48128906 -3.74210938 1.40007812 -4.54296875 1.31640625 C-7 1 -7 1 -9.39453125 0.48828125 C-12.4532406 -0.08494014 -15.38921101 -0.28051342 -18.5 -0.375 C-19.6034375 -0.42398438 -20.706875 -0.47296875 -21.84375 -0.5234375 C-26.11896247 0.18557051 -27.34831096 1.6065487 -30 5 C-31.45394699 7.63541093 -32.63477283 10.35720287 -33.8125 13.125 C-40.44754936 27.88006344 -50.05915171 39.59594252 -64 48 C-64 47.01 -64 46.02 -64 45 C-61.91015625 43.30859375 -61.91015625 43.30859375 -59.0625 41.4375 C-47.36606945 33.21391708 -40.28424059 22.79822164 -35 9.6875 C-28.26782756 -6.6114438 -14.74370454 -3.97296364 0 0 Z " fill="#D96A58" transform="translate(619,212)"/>
<path d="M0 0 C2.125 2.875 2.125 2.875 4 6 C7.63195496 8.42130331 9.38349348 8.21022785 13.6875 8.125 C14.86699219 8.10695313 16.04648437 8.08890625 17.26171875 8.0703125 C18.16535156 8.04710937 19.06898438 8.02390625 20 8 C19.67 8.66 19.34 9.32 19 10 C14.29477445 11.56840852 10.47351184 11.54895539 5.8125 9.8125 C3 8 3 8 1.3125 5.3125 C-0.77818184 2.74499116 -0.77818184 2.74499116 -3.69140625 2.6796875 C-6.47706863 2.68680286 -9.22314943 2.7845547 -12 3 C-11.7104423 7.82596164 -10.9291849 11.02839811 -7.58984375 14.6484375 C-0.17759956 20.94975566 8.66031573 21.5464033 18 21 C21.07186972 20.49170501 23.98307661 19.79132417 27 19 C26 21 26 21 23.453125 22.09765625 C15.28662631 24.23166213 5.09423607 24.53818153 -2.6875 20.9375 C-8.54369613 17.38587168 -12.64038802 13.28709166 -14.375 6.5625 C-14.58125 5.386875 -14.7875 4.21125 -15 3 C-4.0969163 -0.71696035 -4.0969163 -0.71696035 0 0 Z " fill="#DB6D5D" transform="translate(284,758)"/>
<path d="M0 0 C0.33 0 0.66 0 1 0 C1 20.79 1 41.58 1 63 C-1.2443195 59.63352075 -1.2450516 58.54377354 -1.22705078 54.6105957 C-1.22689972 53.50968094 -1.22674866 52.40876617 -1.22659302 51.27449036 C-1.21627045 50.08691635 -1.20594788 48.89934235 -1.1953125 47.67578125 C-1.1924826 46.45924362 -1.18965271 45.24270599 -1.18673706 43.98930359 C-1.17552603 40.09693642 -1.15041948 36.20479784 -1.125 32.3125 C-1.11497141 29.67643561 -1.10584535 27.04036762 -1.09765625 24.40429688 C-1.07558363 17.9361096 -1.04104721 11.46809358 -1 5 C-3.64 9.29 -6.28 13.58 -9 18 C-9.33 17.34 -9.66 16.68 -10 16 C-8.80219162 13.58663793 -7.55896094 11.31129458 -6.1875 9 C-5.81818359 8.35804688 -5.44886719 7.71609375 -5.06835938 7.0546875 C-3.54642782 4.44253926 -2.14632879 2.14632879 0 0 Z " fill="#D86758" transform="translate(214,716)"/>
<path d="M0 0 C0.474375 0.969375 0.94875 1.93875 1.4375 2.9375 C3.14597333 6.28610773 3.62577572 6.73838528 7 8 C9.45204585 8.35121415 9.45204585 8.35121415 12 8.3125 C12.845625 8.32925781 13.69125 8.34601562 14.5625 8.36328125 C17.50647207 7.92451618 18.85659456 7.03720067 21 5 C21.8042208 2.40144267 21.8042208 2.40144267 22 0 C22.33 0 22.66 0 23 0 C23.3125 2.75 23.3125 2.75 23 6 C20.282136 9.24390219 17.69299368 10.28383948 13.625 10.9375 C9.07340051 11.24800845 5.97745199 10.33967764 2 8 C1.34 7.113125 0.68 6.22625 0 5.3125 C-1.87043772 2.61935717 -1.87043772 2.61935717 -5.4375 2.625 C-8.35951832 2.93258088 -11.14700328 3.30836443 -14 4 C-13.67 5.98 -13.34 7.96 -13 10 C-15.35953094 7.64046906 -15.49141413 6.22104383 -16 3 C-13.89936424 2.30178583 -11.79434263 1.61675528 -9.6875 0.9375 C-8.51574219 0.55464844 -7.34398437 0.17179688 -6.13671875 -0.22265625 C-3 -1 -3 -1 0 0 Z " fill="#DE7162" transform="translate(345,758)"/>
<path d="M0 0 C9.68039147 2.53248631 16.0328201 8.19203525 21.3359375 16.53515625 C22.02281052 17.85819354 22.6957272 19.18891964 23.3359375 20.53515625 C19.9339888 22.62866314 17.28321338 22.71457788 13.3359375 22.53515625 C16.3359375 20.53515625 16.3359375 20.53515625 20.3359375 20.53515625 C16.1256896 11.98425454 11.47874177 6.76432106 2.4140625 3.31640625 C-3.81824003 1.73460358 -10.26144735 1.69403008 -16.6640625 1.53515625 C-11.62531208 -1.82401069 -5.82553768 -1.01647945 0 0 Z " fill="#DA6D5D" transform="translate(787.6640625,713.46484375)"/>
<path d="M0 0 C0.495 0.99 0.495 0.99 1 2 C0.03320312 2.01417969 -0.93359375 2.02835938 -1.9296875 2.04296875 C-9.6465823 2.32566688 -15.34308948 2.91978323 -22.14453125 6.94140625 C-24 8 -24 8 -26 8 C-26 8.66 -26 9.32 -26 10 C-26.66 10 -27.32 10 -28 10 C-28.27585937 10.55171875 -28.55171875 11.1034375 -28.8359375 11.671875 C-30.890625 15.78125 -32.9453125 19.890625 -35 24 C-35.98920183 21.40781448 -36.11484073 20.29808659 -35.1015625 17.66796875 C-29.88627858 8.90684364 -23.68216074 3.01120183 -13.640625 0.421875 C-9.09017533 -0.30511992 -4.59093484 -0.23565635 0 0 Z " fill="#DC6E5E" transform="translate(529,713)"/>
<path d="M0 0 C5.11365014 1.0681847 10.07227969 2.23107476 15 4 C13.79157144 8.43090471 12.48331435 10.98112756 9 14 C10.20689255 10.89656201 11.50596946 7.98806107 13 5 C7.06 3.515 7.06 3.515 1 2 C0.34 3.65 -0.32 5.3 -1 7 C-3.9375 9.375 -3.9375 9.375 -7 11 C-7.99 10.67 -8.98 10.34 -10 10 C-9.44570313 9.61328125 -8.89140625 9.2265625 -8.3203125 8.828125 C-7.59585938 8.30734375 -6.87140625 7.7865625 -6.125 7.25 C-5.40570312 6.73953125 -4.68640625 6.2290625 -3.9453125 5.703125 C-1.91429435 3.92496453 -1.02144988 2.47298393 0 0 Z " fill="#DA6E5F" transform="translate(795,756)"/>
<path d="M0 0 C0 0.33 0 0.66 0 1 C-0.89460938 1.01417969 -1.78921875 1.02835938 -2.7109375 1.04296875 C-10.72919781 1.35925407 -17.43560384 2.09841874 -24 7 C-26.05305709 9.24858634 -27.44405434 11.35489239 -29 14 C-29.33 13.01 -29.66 12.02 -30 11 C-26.51548551 4.66806508 -21.35880168 1.75185668 -14.6484375 -0.31640625 C-9.08125576 -1.75336319 -5.2649362 -2.71223986 0 0 Z " fill="#DD6F5F" transform="translate(302,714)"/>
<path d="M0 0 C-2.69545259 2.69545259 -4.23765309 2.25964502 -8 2.375 C-13.60014539 2.70405511 -17.91182601 3.79605168 -22.9765625 6.16015625 C-25 7 -25 7 -28 7 C-19.90162406 1.12470765 -10.00349773 -2.5590343 0 0 Z " fill="#D66A5A" transform="translate(856,713)"/>
<path d="M0 0 C0.33 0 0.66 0 1 0 C1.05389087 1.95803507 1.09274217 3.91648909 1.125 5.875 C1.14820313 6.96554687 1.17140625 8.05609375 1.1953125 9.1796875 C1 12 1 12 -1 14 C-1 11.03 -1 8.06 -1 5 C-3.64 9.29 -6.28 13.58 -9 18 C-9.33 17.34 -9.66 16.68 -10 16 C-8.80219162 13.58663793 -7.55896094 11.31129458 -6.1875 9 C-5.81818359 8.35804688 -5.44886719 7.71609375 -5.06835938 7.0546875 C-3.54642782 4.44253926 -2.14632879 2.14632879 0 0 Z " fill="#E07161" transform="translate(214,716)"/>
<path d="M0 0 C6.56045604 1.59041358 10.43607602 7.65411403 14 13 C15.23734342 17.33070198 15.07569784 21.53382725 15 26 C14.67 26 14.34 26 14 26 C13.90203125 25.3709375 13.8040625 24.741875 13.703125 24.09375 C12.00900718 14.39638594 9.37415034 8.5679781 1.609375 2.34765625 C1.07828125 1.90292969 0.5471875 1.45820313 0 1 C0 0.67 0 0.34 0 0 Z " fill="#DE6E5D" transform="translate(643,395)"/>
<path d="M0 0 C-0.57105469 -0.02320313 -1.14210938 -0.04640625 -1.73046875 -0.0703125 C-8.98338677 -0.2317447 -15.86663653 0.74774811 -23 2 C-22.67 1.34 -22.34 0.68 -22 0 C-5.68226644 -5.0436631 -5.68226644 -5.0436631 0 0 Z " fill="#DD7060" transform="translate(714,715)"/>
<path d="M0 0 C3.39512672 1.45505431 5.71110257 3.07968259 8 6 C8.75 9.75 8.75 9.75 9 13 C7.68 13.99 6.36 14.98 5 16 C4.34 15.67 3.68 15.34 3 15 C4.32 14.34 5.64 13.68 7 13 C5.63464012 7.78680775 3.49095924 4.95029598 0 1 C0 0.67 0 0.34 0 0 Z " fill="#DE705F" transform="translate(592,450)"/>
<path d="M0 0 C0.66 0.33 1.32 0.66 2 1 C2.48736475 7.70126536 1.07708804 12.06561592 -2 18 C-2.33 17.34 -2.66 16.68 -3 16 C-2.690625 15.0925 -2.38125 14.185 -2.0625 13.25 C-0.97396218 9.92035489 -0.84566063 7.47263574 -1 4 C-1 1 -1 1 0 0 Z " fill="#E07567" transform="translate(544,768)"/>
<path d="M0 0 C0.66 0.33 1.32 0.66 2 1 C1.50628906 1.55429687 1.01257813 2.10859375 0.50390625 2.6796875 C-0.13675781 3.40414062 -0.77742188 4.12859375 -1.4375 4.875 C-2.07558594 5.59429688 -2.71367187 6.31359375 -3.37109375 7.0546875 C-5.78638194 9.93913239 -6.19445679 11.94456788 -6.5625 15.625 C-6.64628906 16.44226563 -6.73007812 17.25953125 -6.81640625 18.1015625 C-6.87699219 18.72804688 -6.93757813 19.35453125 -7 20 C-7.33 20 -7.66 20 -8 20 C-8.3221077 13.96346301 -8.56806924 9.16754855 -5 4 C-2.3125 1.625 -2.3125 1.625 0 0 Z " fill="#EA887F" transform="translate(341,718)"/>
<path d="M0 0 C-0.66 0 -1.32 0 -2 0 C-2.33 0.99 -2.66 1.98 -3 3 C-7.62 3 -12.24 3 -17 3 C-13.91770957 0.94513971 -12.08786572 0.45387922 -8.5 -0.1875 C-7.5409375 -0.36667969 -6.581875 -0.54585937 -5.59375 -0.73046875 C-3 -1 -3 -1 0 0 Z " fill="#DC6E5E" transform="translate(578,583)"/>
<path d="M0 0 C3.34455166 1.02194634 4.81190142 1.7589987 7 4.5625 C8.79918859 7.22056852 8.79918859 7.22056852 11.75 7.8125 C12.86375 7.9053125 12.86375 7.9053125 14 8 C13.67 8.66 13.34 9.32 13 10 C10.9375 10.625 10.9375 10.625 9 11 C8.2575 9.9275 7.515 8.855 6.75 7.75 C4.71459798 4.89115898 2.58340552 2.39204215 0 0 Z " fill="#DC6F5E" transform="translate(786,728)"/>
<path d="M0 0 C-2 2 -2 2 -4.09375 2.265625 C-4.8878125 2.26046875 -5.681875 2.2553125 -6.5 2.25 C-7.2940625 2.25515625 -8.088125 2.2603125 -8.90625 2.265625 C-11 2 -11 2 -13 0 C-8.37078475 -1.0161692 -4.65537393 -0.83796731 0 0 Z " fill="#DC7466" transform="translate(856,713)"/>
<path d="M0 0 C3.3 0 6.6 0 10 0 C6.83759418 2.10827055 5.49342531 2.33817465 1.8125 2.625 C0.46091797 2.73714844 0.46091797 2.73714844 -0.91796875 2.8515625 C-1.94857422 2.92503906 -1.94857422 2.92503906 -3 3 C-2.01 2.67 -1.02 2.34 0 2 C0 1.34 0 0.68 0 0 Z " fill="#DF7060" transform="translate(406,235)"/>
<path d="M0 0 C1 3 1 3 0.29296875 4.7890625 C-0.07183594 5.39492188 -0.43664062 6.00078125 -0.8125 6.625 C-1.16957031 7.23601563 -1.52664063 7.84703125 -1.89453125 8.4765625 C-3 10 -3 10 -5 11 C-4.32902328 6.80639551 -2.1441606 3.59665648 0 0 Z " fill="#DE7161" transform="translate(586,569)"/>
<path d="M0 0 C0.33 0 0.66 0 1 0 C1 1.65 1 3.3 1 5 C0.67 5 0.34 5 0 5 C0 3.35 0 1.7 0 0 Z " fill="#E7857C" transform="translate(489,746)"/>
<path d="M0 0 C1 4 1 4 1 4 Z " fill="#DA7F75" transform="translate(140,740)"/>
<path d="M0 0 C0.66 0 1.32 0 2 0 C1.67 0.66 1.34 1.32 1 2 C0.67 1.34 0.34 0.68 0 0 Z " fill="#D97C74" transform="translate(434,781)"/>
<path d="" fill="#C9786F" transform="translate(0,0)"/>
<path d="M0 0 C3 1 3 1 3 1 Z " fill="#DF8278" transform="translate(272,774)"/>
<path d="" fill="#D57D74" transform="translate(0,0)"/>
<path d="" fill="#D88075" transform="translate(0,0)"/>
<path d="" fill="#D37D74" transform="translate(0,0)"/>
<path d="" fill="#E6857C" transform="translate(0,0)"/>
<path d="" fill="#E7877C" transform="translate(0,0)"/>
<path d="" fill="#E7867C" transform="translate(0,0)"/>
<path d="" fill="#E7877D" transform="translate(0,0)"/>
<path d="" fill="#E8857C" transform="translate(0,0)"/>
<path d="" fill="#E4867D" transform="translate(0,0)"/>
<path d="M0 0 C2 1 2 1 2 1 Z " fill="#DB7C73" transform="translate(584,781)"/>
<path d="M0 0 C2 1 2 1 2 1 Z " fill="#D77E74" transform="translate(257,781)"/>
<path d="" fill="#E5837B" transform="translate(0,0)"/>
<path d="" fill="#DD8076" transform="translate(0,0)"/>
<path d="" fill="#E7867C" transform="translate(0,0)"/>
<path d="M0 0 C2 1 2 1 2 1 Z " fill="#E4857B" transform="translate(858,731)"/>
<path d="M0 0 C2 1 2 1 2 1 Z " fill="#E5877B" transform="translate(162,731)"/>
<path d="" fill="#DA7F75" transform="translate(0,0)"/>
<path d="" fill="#E7857B" transform="translate(0,0)"/>
<path d="M0 0 C2 1 2 1 2 1 Z " fill="#DD8378" transform="translate(841,712)"/>
<path d="M0 0 C2 1 2 1 2 1 Z " fill="#E6877E" transform="translate(696,712)"/>
<path d="M0 0 C2 1 2 1 2 1 Z " fill="#E18379" transform="translate(302,712)"/>
<path d="" fill="#D87E74" transform="translate(0,0)"/>
<path d="" fill="#CE7B72" transform="translate(0,0)"/>
<path d="M0 0 C2 1 2 1 2 1 Z " fill="#D17B71" transform="translate(153,688)"/>
<path d="" fill="#E2827A" transform="translate(0,0)"/>
<path d="" fill="#E4847C" transform="translate(0,0)"/>
<path d="" fill="#E28379" transform="translate(0,0)"/>
<path d="" fill="#E28279" transform="translate(0,0)"/>
<path d="" fill="#E1847A" transform="translate(0,0)"/>
<path d="" fill="#E1847B" transform="translate(0,0)"/>
<path d="M0 0 C2 1 2 1 2 1 Z " fill="#E4877D" transform="translate(481,293)"/>
<path d="M0 0 C2 1 2 1 2 1 Z " fill="#E5887E" transform="translate(648,247)"/>
<path d="" fill="#E2857A" transform="translate(0,0)"/>
<path d="" fill="#DB7D73" transform="translate(0,0)"/>
<path d="" fill="#D77F74" transform="translate(0,0)"/>
<path d="" fill="#D97F76" transform="translate(0,0)"/>
<path d="" fill="#DB7F74" transform="translate(0,0)"/>
<path d="" fill="#D87971" transform="translate(0,0)"/>
<path d="" fill="#D97D76" transform="translate(0,0)"/>
<path d="" fill="#DC7F74" transform="translate(0,0)"/>
<path d="" fill="#DD8177" transform="translate(0,0)"/>
<path d="" fill="#D77A73" transform="translate(0,0)"/>
<path d="" fill="#E68379" transform="translate(0,0)"/>
<path d="" fill="#DF8078" transform="translate(0,0)"/>
<path d="" fill="#DB7E79" transform="translate(0,0)"/>
<path d="" fill="#D97D75" transform="translate(0,0)"/>
<path d="" fill="#DF8277" transform="translate(0,0)"/>
<path d="" fill="#E08479" transform="translate(0,0)"/>
<path d="" fill="#D07B71" transform="translate(0,0)"/>
<path d="" fill="#E58279" transform="translate(0,0)"/>
<path d="" fill="#D17C71" transform="translate(0,0)"/>
<path d="" fill="#DD817A" transform="translate(0,0)"/>
<path d="" fill="#E38379" transform="translate(0,0)"/>
<path d="" fill="#E28279" transform="translate(0,0)"/>
<path d="" fill="#E58278" transform="translate(0,0)"/>
<path d="" fill="#E5837A" transform="translate(0,0)"/>
<path d="" fill="#E38478" transform="translate(0,0)"/>
<path d="" fill="#E5857B" transform="translate(0,0)"/>
<path d="" fill="#E58378" transform="translate(0,0)"/>
<path d="" fill="#DE8177" transform="translate(0,0)"/>
<path d="" fill="#E4837A" transform="translate(0,0)"/>
<path d="" fill="#E4857B" transform="translate(0,0)"/>
<path d="" fill="#E8877A" transform="translate(0,0)"/>
<path d="" fill="#E38479" transform="translate(0,0)"/>
<path d="" fill="#E78377" transform="translate(0,0)"/>
<path d="" fill="#E58278" transform="translate(0,0)"/>
<path d="" fill="#D67D74" transform="translate(0,0)"/>
<path d="" fill="#E3837B" transform="translate(0,0)"/>
<path d="" fill="#E8877C" transform="translate(0,0)"/>
<path d="" fill="#E2837A" transform="translate(0,0)"/>
<path d="" fill="#E68479" transform="translate(0,0)"/>
<path d="" fill="#E6857B" transform="translate(0,0)"/>
<path d="" fill="#E8877C" transform="translate(0,0)"/>
<path d="" fill="#E4857C" transform="translate(0,0)"/>
<path d="" fill="#D88075" transform="translate(0,0)"/>
<path d="" fill="#E8867C" transform="translate(0,0)"/>
<path d="" fill="#E1847D" transform="translate(0,0)"/>
<path d="" fill="#E28479" transform="translate(0,0)"/>
<path d="" fill="#E7867B" transform="translate(0,0)"/>
<path d="" fill="#E4847A" transform="translate(0,0)"/>
<path d="" fill="#E7847C" transform="translate(0,0)"/>
<path d="" fill="#D88075" transform="translate(0,0)"/>
<path d="" fill="#DB7D75" transform="translate(0,0)"/>
<path d="" fill="#E78479" transform="translate(0,0)"/>
<path d="" fill="#E68278" transform="translate(0,0)"/>
<path d="" fill="#E9877D" transform="translate(0,0)"/>
<path d="" fill="#E48379" transform="translate(0,0)"/>
<path d="" fill="#E5847A" transform="translate(0,0)"/>
<path d="" fill="#E48279" transform="translate(0,0)"/>
<path d="" fill="#E5857A" transform="translate(0,0)"/>
<path d="" fill="#E8897E" transform="translate(0,0)"/>
<path d="" fill="#E18579" transform="translate(0,0)"/>
<path d="" fill="#E58577" transform="translate(0,0)"/>
<path d="" fill="#E6867A" transform="translate(0,0)"/>
<path d="" fill="#EA877C" transform="translate(0,0)"/>
<path d="" fill="#E88378" transform="translate(0,0)"/>
<path d="" fill="#E6877D" transform="translate(0,0)"/>
<path d="" fill="#DA8076" transform="translate(0,0)"/>
<path d="" fill="#E7837A" transform="translate(0,0)"/>
<path d="" fill="#E38279" transform="translate(0,0)"/>
<path d="" fill="#E78478" transform="translate(0,0)"/>
<path d="" fill="#E8877D" transform="translate(0,0)"/>
<path d="" fill="#E7847B" transform="translate(0,0)"/>
<path d="" fill="#DA8176" transform="translate(0,0)"/>
<path d="" fill="#E5857C" transform="translate(0,0)"/>
<path d="" fill="#E8857B" transform="translate(0,0)"/>
<path d="" fill="#E78479" transform="translate(0,0)"/>
<path d="" fill="#E8867D" transform="translate(0,0)"/>
<path d="" fill="#E6867B" transform="translate(0,0)"/>
<path d="" fill="#E5867E" transform="translate(0,0)"/>
<path d="" fill="#E6877B" transform="translate(0,0)"/>
<path d="" fill="#E9877C" transform="translate(0,0)"/>
<path d="" fill="#E8877C" transform="translate(0,0)"/>
<path d="" fill="#DA7F77" transform="translate(0,0)"/>
<path d="" fill="#E8877B" transform="translate(0,0)"/>
<path d="" fill="#E08276" transform="translate(0,0)"/>
<path d="" fill="#E5867D" transform="translate(0,0)"/>
<path d="" fill="#E7867B" transform="translate(0,0)"/>
<path d="" fill="#DE817A" transform="translate(0,0)"/>
<path d="" fill="#E5847A" transform="translate(0,0)"/>
<path d="" fill="#E4887D" transform="translate(0,0)"/>
<path d="" fill="#E5877E" transform="translate(0,0)"/>
<path d="" fill="#E78A80" transform="translate(0,0)"/>
<path d="" fill="#E48179" transform="translate(0,0)"/>
<path d="" fill="#E28579" transform="translate(0,0)"/>
<path d="" fill="#E5887A" transform="translate(0,0)"/>
<path d="" fill="#D88378" transform="translate(0,0)"/>
<path d="" fill="#E08378" transform="translate(0,0)"/>
<path d="" fill="#E1857C" transform="translate(0,0)"/>
<path d="" fill="#E08679" transform="translate(0,0)"/>
<path d="" fill="#E28579" transform="translate(0,0)"/>
<path d="" fill="#E98A7F" transform="translate(0,0)"/>
<path d="" fill="#E5857E" transform="translate(0,0)"/>
<path d="" fill="#E4857C" transform="translate(0,0)"/>
<path d="" fill="#EB8B80" transform="translate(0,0)"/>
<path d="" fill="#EA877A" transform="translate(0,0)"/>
<path d="" fill="#E8867D" transform="translate(0,0)"/>
<path d="" fill="#D87E76" transform="translate(0,0)"/>
<path d="" fill="#E9897D" transform="translate(0,0)"/>
<path d="" fill="#E8887F" transform="translate(0,0)"/>
<path d="" fill="#E1847B" transform="translate(0,0)"/>
<path d="" fill="#DA8176" transform="translate(0,0)"/>
<path d="" fill="#DA8177" transform="translate(0,0)"/>
<path d="" fill="#EA887C" transform="translate(0,0)"/>
<path d="" fill="#EC877D" transform="translate(0,0)"/>
<path d="" fill="#EB877D" transform="translate(0,0)"/>
<path d="" fill="#EA8A7E" transform="translate(0,0)"/>
<path d="" fill="#EB887D" transform="translate(0,0)"/>
<path d="" fill="#EB887E" transform="translate(0,0)"/>
<path d="" fill="#E9887D" transform="translate(0,0)"/>
<path d="" fill="#E9877C" transform="translate(0,0)"/>
<path d="" fill="#E2847E" transform="translate(0,0)"/>
<path d="" fill="#E1847B" transform="translate(0,0)"/>
<path d="" fill="#E8887E" transform="translate(0,0)"/>
<path d="" fill="#E8877D" transform="translate(0,0)"/>
<path d="" fill="#E8877D" transform="translate(0,0)"/>
<path d="" fill="#E7857E" transform="translate(0,0)"/>
<path d="" fill="#E6877D" transform="translate(0,0)"/>
<path d="" fill="#E7867D" transform="translate(0,0)"/>
<path d="" fill="#E88981" transform="translate(0,0)"/>
<path d="" fill="#E6857C" transform="translate(0,0)"/>
<path d="" fill="#E98980" transform="translate(0,0)"/>
<path d="" fill="#E8877E" transform="translate(0,0)"/>
<path d="" fill="#E7877E" transform="translate(0,0)"/>
<path d="" fill="#E7867D" transform="translate(0,0)"/>
<path d="" fill="#E8877D" transform="translate(0,0)"/>
<path d="" fill="#E9897F" transform="translate(0,0)"/>
<path d="" fill="#E7887D" transform="translate(0,0)"/>
<path d="" fill="#E5877C" transform="translate(0,0)"/>
<path d="" fill="#E6847E" transform="translate(0,0)"/>
<path d="" fill="#E5867C" transform="translate(0,0)"/>
<path d="" fill="#E6877C" transform="translate(0,0)"/>
<path d="" fill="#E6867E" transform="translate(0,0)"/>
<path d="" fill="#E7887E" transform="translate(0,0)"/>
<path d="" fill="#E8877C" transform="translate(0,0)"/>
<path d="" fill="#E8867E" transform="translate(0,0)"/>
<path d="" fill="#E7877C" transform="translate(0,0)"/>
<path d="" fill="#E7867E" transform="translate(0,0)"/>
<path d="" fill="#E7877E" transform="translate(0,0)"/>
<path d="" fill="#E8877D" transform="translate(0,0)"/>
<path d="" fill="#E88A81" transform="translate(0,0)"/>
<path d="" fill="#E8887E" transform="translate(0,0)"/>
<path d="" fill="#E7897D" transform="translate(0,0)"/>
<path d="" fill="#E2857D" transform="translate(0,0)"/>
<path d="" fill="#E4867F" transform="translate(0,0)"/>
<path d="" fill="#E3877D" transform="translate(0,0)"/>
<path d="" fill="#E6897D" transform="translate(0,0)"/>
<path d="" fill="#E8887F" transform="translate(0,0)"/>
<path d="" fill="#E78980" transform="translate(0,0)"/>
<path d="" fill="#EC897F" transform="translate(0,0)"/>
<path d="" fill="#ED8B7C" transform="translate(0,0)"/>
<path d="" fill="#EB8B80" transform="translate(0,0)"/>
<path d="" fill="#E8877F" transform="translate(0,0)"/>
<path d="" fill="#E3857C" transform="translate(0,0)"/>
<path d="" fill="#E2867D" transform="translate(0,0)"/>
<path d="" fill="#E9897F" transform="translate(0,0)"/>
<path d="" fill="#E6887D" transform="translate(0,0)"/>
<path d="" fill="#EA897F" transform="translate(0,0)"/>
<path d="" fill="#E4877D" transform="translate(0,0)"/>
<path d="" fill="#E8877D" transform="translate(0,0)"/>
<path d="" fill="#E7877B" transform="translate(0,0)"/>
<path d="" fill="#E3897D" transform="translate(0,0)"/>
<path d="" fill="#E2887E" transform="translate(0,0)"/>
<path d="" fill="#E5857C" transform="translate(0,0)"/>
<path d="" fill="#E8887D" transform="translate(0,0)"/>
<path d="" fill="#E5897F" transform="translate(0,0)"/>
<path d="" fill="#E8877E" transform="translate(0,0)"/>
<path d="" fill="#E8897E" transform="translate(0,0)"/>
<path d="" fill="#E9897D" transform="translate(0,0)"/>
<path d="" fill="#E7897F" transform="translate(0,0)"/>
<path d="" fill="#E2867D" transform="translate(0,0)"/>
<path d="" fill="#E7877C" transform="translate(0,0)"/>
<path d="" fill="#E6867C" transform="translate(0,0)"/>
<path d="" fill="#E4897E" transform="translate(0,0)"/>
<path d="" fill="#E6867E" transform="translate(0,0)"/>
<path d="" fill="#E5897E" transform="translate(0,0)"/>
<path d="" fill="#D77F74" transform="translate(0,0)"/>
</svg>
